<svg width="188" height="55" viewBox="0 0 188 55" fill="none" xmlns="http://www.w3.org/2000/svg">
  <path d="M0.0400001 12V0.32H2.44V4.848H3.576L5.496 0.32H8.104L5.704 5.904L8.2 12H5.56L3.576 7.056H2.44V12H0.0400001ZM13.3938 12.16C12.6151 12.16 11.9378 12.016 11.3618 11.728C10.7858 11.4293 10.3378 11.0187 10.0178 10.496C9.70842 9.96267 9.55375 9.344 9.55375 8.64V3.68C9.55375 2.976 9.70842 2.36267 10.0178 1.84C10.3378 1.30667 10.7858 0.895999 11.3618 0.608C11.9378 0.309333 12.6151 0.16 13.3938 0.16C14.1831 0.16 14.8604 0.309333 15.4258 0.608C16.0018 0.895999 16.4444 1.30667 16.7538 1.84C17.0738 2.36267 17.2338 2.976 17.2338 3.68V8.64C17.2338 9.344 17.0738 9.96267 16.7538 10.496C16.4444 11.0187 16.0018 11.4293 15.4258 11.728C14.8604 12.016 14.1831 12.16 13.3938 12.16ZM13.3938 10.08C13.8738 10.08 14.2311 9.95733 14.4658 9.712C14.7111 9.456 14.8338 9.09867 14.8338 8.64V3.68C14.8338 3.21067 14.7164 2.85333 14.4818 2.608C14.2471 2.36267 13.8844 2.24 13.3938 2.24C12.9031 2.24 12.5404 2.36267 12.3058 2.608C12.0711 2.85333 11.9538 3.21067 11.9538 3.68V8.64C11.9538 9.09867 12.0711 9.456 12.3058 9.712C12.5511 9.95733 12.9138 10.08 13.3938 10.08ZM19.1475 12V0.32H21.9475L24.9715 9.36C24.9395 8.96533 24.9022 8.512 24.8595 8C24.8168 7.47733 24.7795 6.96 24.7475 6.448C24.7262 5.92533 24.7155 5.48267 24.7155 5.12V0.32H26.8275V12H24.0275L21.0355 2.96C21.0675 3.30133 21.0995 3.70667 21.1315 4.176C21.1635 4.64533 21.1902 5.12 21.2115 5.6C21.2435 6.08 21.2595 6.50667 21.2595 6.88V12H19.1475ZM28.9813 12V9.76L33.2693 2.56H29.1093V0.32H36.0052V2.56L31.7013 9.76H36.1813V12H28.9813ZM38.655 12V0.32H45.855V2.368H41.007V4.992H45.295V7.04H41.007V9.952H45.855V12H38.655ZM47.9288 12V0.32H50.7288L53.7528 9.36C53.7208 8.96533 53.6834 8.512 53.6408 8C53.5981 7.47733 53.5608 6.96 53.5288 6.448C53.5074 5.92533 53.4968 5.48267 53.4968 5.12V0.32H55.6088V12H52.8088L49.8168 2.96C49.8488 3.30133 49.8808 3.70667 49.9128 4.176C49.9448 4.64533 49.9714 5.12 49.9928 5.6C50.0248 6.08 50.0408 6.50667 50.0408 6.88V12H47.9288ZM60.1625 12V2.56H57.2025V0.32H65.5225V2.56H62.5625V12H60.1625ZM67.1963 12V0.32H70.9563C71.7883 0.32 72.5083 0.464 73.1163 0.752C73.7243 1.04 74.1936 1.45067 74.5243 1.984C74.8656 2.51733 75.0363 3.14667 75.0363 3.872C75.0363 4.62933 74.8496 5.30667 74.4763 5.904C74.1136 6.50133 73.6176 6.93333 72.9883 7.2L75.1962 12H72.5883L70.7003 7.584H69.5803V12H67.1963ZM69.5803 5.504H70.9563C71.4896 5.504 71.9003 5.37067 72.1883 5.104C72.4869 4.83733 72.6363 4.464 72.6363 3.984C72.6363 3.48267 72.4869 3.09333 72.1883 2.816C71.9003 2.53867 71.4896 2.4 70.9563 2.4H69.5803V5.504ZM77.03 12V9.92H79.35V2.4H77.03V0.32H84.07V2.4H81.75V9.92H84.07V12H77.03ZM86.6238 12V0.32H93.8238V2.368H88.9758V4.992H93.2638V7.04H88.9758V9.952H93.8238V12H86.6238ZM95.9775 12V0.32H99.7375C100.57 0.32 101.29 0.464 101.898 0.752C102.506 1.04 102.975 1.45067 103.306 1.984C103.647 2.51733 103.818 3.14667 103.818 3.872C103.818 4.62933 103.631 5.30667 103.258 5.904C102.895 6.50133 102.399 6.93333 101.77 7.2L103.977 12H101.37L99.4815 7.584H98.3615V12H95.9775ZM98.3615 5.504H99.7375C100.271 5.504 100.682 5.37067 100.97 5.104C101.268 4.83733 101.418 4.464 101.418 3.984C101.418 3.48267 101.268 3.09333 100.97 2.816C100.682 2.53867 100.271 2.4 99.7375 2.4H98.3615V5.504ZM115.133 12V0.32H118.925C119.736 0.32 120.44 0.474666 121.037 0.783999C121.645 1.09333 122.114 1.53067 122.445 2.096C122.786 2.65067 122.957 3.30667 122.957 4.064V8.24C122.957 8.98667 122.786 9.64267 122.445 10.208C122.114 10.7733 121.645 11.216 121.037 11.536C120.44 11.8453 119.736 12 118.925 12H115.133ZM117.533 9.76H118.925C119.416 9.76 119.81 9.62133 120.109 9.344C120.408 9.06667 120.557 8.69867 120.557 8.24V4.064C120.557 3.616 120.408 3.25333 120.109 2.976C119.81 2.69867 119.416 2.56 118.925 2.56H117.533V9.76ZM124.999 12V9.92H127.319V2.4H124.999V0.32H132.039V2.4H129.719V9.92H132.039V12H124.999ZM138.177 12.16C137.398 12.16 136.715 12.016 136.129 11.728C135.542 11.4293 135.083 11.0187 134.753 10.496C134.433 9.96267 134.273 9.344 134.273 8.64V3.68C134.273 2.96533 134.433 2.34667 134.753 1.824C135.083 1.30133 135.542 0.895999 136.129 0.608C136.715 0.309333 137.398 0.16 138.177 0.16C138.966 0.16 139.649 0.309333 140.225 0.608C140.811 0.895999 141.265 1.30133 141.585 1.824C141.915 2.34667 142.081 2.96533 142.081 3.68H139.681C139.681 3.21067 139.547 2.85333 139.281 2.608C139.025 2.36267 138.657 2.24 138.177 2.24C137.697 2.24 137.323 2.36267 137.057 2.608C136.801 2.85333 136.673 3.21067 136.673 3.68V8.64C136.673 9.09867 136.801 9.456 137.057 9.712C137.323 9.95733 137.697 10.08 138.177 10.08C138.657 10.08 139.025 9.95733 139.281 9.712C139.547 9.456 139.681 9.09867 139.681 8.64H142.081C142.081 9.344 141.915 9.96267 141.585 10.496C141.265 11.0187 140.811 11.4293 140.225 11.728C139.649 12.016 138.966 12.16 138.177 12.16ZM143.962 12V0.32H146.362V4.8H149.05V0.32H151.45V12H149.05V7.04H146.362V12H143.962ZM154.74 14.56L156.02 9.584H158.9L156.82 14.56H154.74ZM0.0400001 33V21.32H2.44V25.848H3.576L5.496 21.32H8.104L5.704 26.904L8.2 33H5.56L3.576 28.056H2.44V33H0.0400001ZM13.3938 33.16C12.6151 33.16 11.9378 33.016 11.3618 32.728C10.7858 32.4293 10.3378 32.0187 10.0178 31.496C9.70842 30.9627 9.55375 30.344 9.55375 29.64V24.68C9.55375 23.976 9.70842 23.3627 10.0178 22.84C10.3378 22.3067 10.7858 21.896 11.3618 21.608C11.9378 21.3093 12.6151 21.16 13.3938 21.16C14.1831 21.16 14.8604 21.3093 15.4258 21.608C16.0018 21.896 16.4444 22.3067 16.7538 22.84C17.0738 23.3627 17.2338 23.976 17.2338 24.68V29.64C17.2338 30.344 17.0738 30.9627 16.7538 31.496C16.4444 32.0187 16.0018 32.4293 15.4258 32.728C14.8604 33.016 14.1831 33.16 13.3938 33.16ZM13.3938 31.08C13.8738 31.08 14.2311 30.9573 14.4658 30.712C14.7111 30.456 14.8338 30.0987 14.8338 29.64V24.68C14.8338 24.2107 14.7164 23.8533 14.4818 23.608C14.2471 23.3627 13.8844 23.24 13.3938 23.24C12.9031 23.24 12.5404 23.3627 12.3058 23.608C12.0711 23.8533 11.9538 24.2107 11.9538 24.68V29.64C11.9538 30.0987 12.0711 30.456 12.3058 30.712C12.5511 30.9573 12.9138 31.08 13.3938 31.08ZM19.1475 33V21.32H21.9475L24.9715 30.36C24.9395 29.9653 24.9022 29.512 24.8595 29C24.8168 28.4773 24.7795 27.96 24.7475 27.448C24.7262 26.9253 24.7155 26.4827 24.7155 26.12V21.32H26.8275V33H24.0275L21.0355 23.96C21.0675 24.3013 21.0995 24.7067 21.1315 25.176C21.1635 25.6453 21.1902 26.12 21.2115 26.6C21.2435 27.08 21.2595 27.5067 21.2595 27.88V33H19.1475ZM28.9813 33V30.76L33.2693 23.56H29.1093V21.32H36.0052V23.56L31.7013 30.76H36.1813V33H28.9813ZM38.655 33V21.32H45.855V23.368H41.007V25.992H45.295V28.04H41.007V30.952H45.855V33H38.655ZM47.9288 33V21.32H50.7288L53.7528 30.36C53.7208 29.9653 53.6834 29.512 53.6408 29C53.5981 28.4773 53.5608 27.96 53.5288 27.448C53.5074 26.9253 53.4968 26.4827 53.4968 26.12V21.32H55.6088V33H52.8088L49.8168 23.96C49.8488 24.3013 49.8808 24.7067 49.9128 25.176C49.9448 25.6453 49.9714 26.12 49.9928 26.6C50.0248 27.08 50.0408 27.5067 50.0408 27.88V33H47.9288ZM60.1625 33V23.56H57.2025V21.32H65.5225V23.56H62.5625V33H60.1625ZM67.1963 33V21.32H70.9563C71.7883 21.32 72.5083 21.464 73.1163 21.752C73.7243 22.04 74.1936 22.4507 74.5243 22.984C74.8656 23.5173 75.0363 24.1467 75.0363 24.872C75.0363 25.6293 74.8496 26.3067 74.4763 26.904C74.1136 27.5013 73.6176 27.9333 72.9883 28.2L75.1962 33H72.5883L70.7003 28.584H69.5803V33H67.1963ZM69.5803 26.504H70.9563C71.4896 26.504 71.9003 26.3707 72.1883 26.104C72.4869 25.8373 72.6363 25.464 72.6363 24.984C72.6363 24.4827 72.4869 24.0933 72.1883 23.816C71.9003 23.5387 71.4896 23.4 70.9563 23.4H69.5803V26.504ZM77.03 33V30.92H79.35V23.4H77.03V21.32H84.07V23.4H81.75V30.92H84.07V33H77.03ZM86.6238 33V21.32H93.8238V23.368H88.9758V25.992H93.2638V28.04H88.9758V30.952H93.8238V33H86.6238ZM95.9775 33V21.32H99.7375C100.57 21.32 101.29 21.464 101.898 21.752C102.506 22.04 102.975 22.4507 103.306 22.984C103.647 23.5173 103.818 24.1467 103.818 24.872C103.818 25.6293 103.631 26.3067 103.258 26.904C102.895 27.5013 102.399 27.9333 101.77 28.2L103.977 33H101.37L99.4815 28.584H98.3615V33H95.9775ZM98.3615 26.504H99.7375C100.271 26.504 100.682 26.3707 100.97 26.104C101.268 25.8373 101.418 25.464 101.418 24.984C101.418 24.4827 101.268 24.0933 100.97 23.816C100.682 23.5387 100.271 23.4 99.7375 23.4H98.3615V26.504ZM115.133 33V21.32H118.925C119.736 21.32 120.44 21.4747 121.037 21.784C121.645 22.0933 122.114 22.5307 122.445 23.096C122.786 23.6507 122.957 24.3067 122.957 25.064V29.24C122.957 29.9867 122.786 30.6427 122.445 31.208C122.114 31.7733 121.645 32.216 121.037 32.536C120.44 32.8453 119.736 33 118.925 33H115.133ZM117.533 30.76H118.925C119.416 30.76 119.81 30.6213 120.109 30.344C120.408 30.0667 120.557 29.6987 120.557 29.24V25.064C120.557 24.616 120.408 24.2533 120.109 23.976C119.81 23.6987 119.416 23.56 118.925 23.56H117.533V30.76ZM124.999 33V30.92H127.319V23.4H124.999V21.32H132.039V23.4H129.719V30.92H132.039V33H124.999ZM138.177 33.16C137.398 33.16 136.715 33.016 136.129 32.728C135.542 32.4293 135.083 32.0187 134.753 31.496C134.433 30.9627 134.273 30.344 134.273 29.64V24.68C134.273 23.9653 134.433 23.3467 134.753 22.824C135.083 22.3013 135.542 21.896 136.129 21.608C136.715 21.3093 137.398 21.16 138.177 21.16C138.966 21.16 139.649 21.3093 140.225 21.608C140.811 21.896 141.265 22.3013 141.585 22.824C141.915 23.3467 142.081 23.9653 142.081 24.68H139.681C139.681 24.2107 139.547 23.8533 139.281 23.608C139.025 23.3627 138.657 23.24 138.177 23.24C137.697 23.24 137.323 23.3627 137.057 23.608C136.801 23.8533 136.673 24.2107 136.673 24.68V29.64C136.673 30.0987 136.801 30.456 137.057 30.712C137.323 30.9573 137.697 31.08 138.177 31.08C138.657 31.08 139.025 30.9573 139.281 30.712C139.547 30.456 139.681 30.0987 139.681 29.64H142.081C142.081 30.344 141.915 30.9627 141.585 31.496C141.265 32.0187 140.811 32.4293 140.225 32.728C139.649 33.016 138.966 33.16 138.177 33.16ZM143.962 33V21.32H146.362V25.8H149.05V21.32H151.45V33H149.05V28.04H146.362V33H143.962ZM154.74 35.56L156.02 30.584H158.9L156.82 35.56H154.74ZM0.0400001 54V42.32H2.44V46.848H3.576L5.496 42.32H8.104L5.704 47.904L8.2 54H5.56L3.576 49.056H2.44V54H0.0400001ZM13.3938 54.16C12.6151 54.16 11.9378 54.016 11.3618 53.728C10.7858 53.4293 10.3378 53.0187 10.0178 52.496C9.70842 51.9627 9.55375 51.344 9.55375 50.64V45.68C9.55375 44.976 9.70842 44.3627 10.0178 43.84C10.3378 43.3067 10.7858 42.896 11.3618 42.608C11.9378 42.3093 12.6151 42.16 13.3938 42.16C14.1831 42.16 14.8604 42.3093 15.4258 42.608C16.0018 42.896 16.4444 43.3067 16.7538 43.84C17.0738 44.3627 17.2338 44.976 17.2338 45.68V50.64C17.2338 51.344 17.0738 51.9627 16.7538 52.496C16.4444 53.0187 16.0018 53.4293 15.4258 53.728C14.8604 54.016 14.1831 54.16 13.3938 54.16ZM13.3938 52.08C13.8738 52.08 14.2311 51.9573 14.4658 51.712C14.7111 51.456 14.8338 51.0987 14.8338 50.64V45.68C14.8338 45.2107 14.7164 44.8533 14.4818 44.608C14.2471 44.3627 13.8844 44.24 13.3938 44.24C12.9031 44.24 12.5404 44.3627 12.3058 44.608C12.0711 44.8533 11.9538 45.2107 11.9538 45.68V50.64C11.9538 51.0987 12.0711 51.456 12.3058 51.712C12.5511 51.9573 12.9138 52.08 13.3938 52.08ZM19.1475 54V42.32H21.9475L24.9715 51.36C24.9395 50.9653 24.9022 50.512 24.8595 50C24.8168 49.4773 24.7795 48.96 24.7475 48.448C24.7262 47.9253 24.7155 47.4827 24.7155 47.12V42.32H26.8275V54H24.0275L21.0355 44.96C21.0675 45.3013 21.0995 45.7067 21.1315 46.176C21.1635 46.6453 21.1902 47.12 21.2115 47.6C21.2435 48.08 21.2595 48.5067 21.2595 48.88V54H19.1475ZM28.9813 54V51.76L33.2693 44.56H29.1093V42.32H36.0052V44.56L31.7013 51.76H36.1813V54H28.9813ZM38.655 54V42.32H45.855V44.368H41.007V46.992H45.295V49.04H41.007V51.952H45.855V54H38.655ZM47.9288 54V42.32H50.7288L53.7528 51.36C53.7208 50.9653 53.6834 50.512 53.6408 50C53.5981 49.4773 53.5608 48.96 53.5288 48.448C53.5074 47.9253 53.4968 47.4827 53.4968 47.12V42.32H55.6088V54H52.8088L49.8168 44.96C49.8488 45.3013 49.8808 45.7067 49.9128 46.176C49.9448 46.6453 49.9714 47.12 49.9928 47.6C50.0248 48.08 50.0408 48.5067 50.0408 48.88V54H47.9288ZM60.1625 54V44.56H57.2025V42.32H65.5225V44.56H62.5625V54H60.1625ZM67.1963 54V42.32H70.9563C71.7883 42.32 72.5083 42.464 73.1163 42.752C73.7243 43.04 74.1936 43.4507 74.5243 43.984C74.8656 44.5173 75.0363 45.1467 75.0363 45.872C75.0363 46.6293 74.8496 47.3067 74.4763 47.904C74.1136 48.5013 73.6176 48.9333 72.9883 49.2L75.1962 54H72.5883L70.7003 49.584H69.5803V54H67.1963ZM69.5803 47.504H70.9563C71.4896 47.504 71.9003 47.3707 72.1883 47.104C72.4869 46.8373 72.6363 46.464 72.6363 45.984C72.6363 45.4827 72.4869 45.0933 72.1883 44.816C71.9003 44.5387 71.4896 44.4 70.9563 44.4H69.5803V47.504ZM77.03 54V51.92H79.35V44.4H77.03V42.32H84.07V44.4H81.75V51.92H84.07V54H77.03ZM86.6238 54V42.32H93.8238V44.368H88.9758V46.992H93.2638V49.04H88.9758V51.952H93.8238V54H86.6238ZM95.9775 54V42.32H99.7375C100.57 42.32 101.29 42.464 101.898 42.752C102.506 43.04 102.975 43.4507 103.306 43.984C103.647 44.5173 103.818 45.1467 103.818 45.872C103.818 46.6293 103.631 47.3067 103.258 47.904C102.895 48.5013 102.399 48.9333 101.77 49.2L103.977 54H101.37L99.4815 49.584H98.3615V54H95.9775ZM98.3615 47.504H99.7375C100.271 47.504 100.682 47.3707 100.97 47.104C101.268 46.8373 101.418 46.464 101.418 45.984C101.418 45.4827 101.268 45.0933 100.97 44.816C100.682 44.5387 100.271 44.4 99.7375 44.4H98.3615V47.504ZM115.133 54V42.32H118.925C119.736 42.32 120.44 42.4747 121.037 42.784C121.645 43.0933 122.114 43.5307 122.445 44.096C122.786 44.6507 122.957 45.3067 122.957 46.064V50.24C122.957 50.9867 122.786 51.6427 122.445 52.208C122.114 52.7733 121.645 53.216 121.037 53.536C120.44 53.8453 119.736 54 118.925 54H115.133ZM117.533 51.76H118.925C119.416 51.76 119.81 51.6213 120.109 51.344C120.408 51.0667 120.557 50.6987 120.557 50.24V46.064C120.557 45.616 120.408 45.2533 120.109 44.976C119.81 44.6987 119.416 44.56 118.925 44.56H117.533V51.76ZM124.999 54V51.92H127.319V44.4H124.999V42.32H132.039V44.4H129.719V51.92H132.039V54H124.999ZM138.177 54.16C137.398 54.16 136.715 54.016 136.129 53.728C135.542 53.4293 135.083 53.0187 134.753 52.496C134.433 51.9627 134.273 51.344 134.273 50.64V45.68C134.273 44.9653 134.433 44.3467 134.753 43.824C135.083 43.3013 135.542 42.896 136.129 42.608C136.715 42.3093 137.398 42.16 138.177 42.16C138.966 42.16 139.649 42.3093 140.225 42.608C140.811 42.896 141.265 43.3013 141.585 43.824C141.915 44.3467 142.081 44.9653 142.081 45.68H139.681C139.681 45.2107 139.547 44.8533 139.281 44.608C139.025 44.3627 138.657 44.24 138.177 44.24C137.697 44.24 137.323 44.3627 137.057 44.608C136.801 44.8533 136.673 45.2107 136.673 45.68V50.64C136.673 51.0987 136.801 51.456 137.057 51.712C137.323 51.9573 137.697 52.08 138.177 52.08C138.657 52.08 139.025 51.9573 139.281 51.712C139.547 51.456 139.681 51.0987 139.681 50.64H142.081C142.081 51.344 141.915 51.9627 141.585 52.496C141.265 53.0187 140.811 53.4293 140.225 53.728C139.649 54.016 138.966 54.16 138.177 54.16ZM143.962 54V42.32H146.362V46.8H149.05V42.32H151.45V54H149.05V49.04H146.362V54H143.962ZM156.404 50.08L156.036 44.72V42.32H158.564V44.72L158.196 50.08H156.404ZM157.06 54.08C156.697 54.08 156.404 53.9787 156.18 53.776C155.967 53.5627 155.86 53.2907 155.86 52.96C155.86 52.6187 155.967 52.3467 156.18 52.144C156.404 51.9413 156.697 51.84 157.06 51.84H157.54C157.903 51.84 158.191 51.9413 158.404 52.144C158.628 52.3467 158.74 52.6187 158.74 52.96C158.74 53.3013 158.628 53.5733 158.404 53.776C158.191 53.9787 157.897 54.08 157.524 54.08H157.06ZM165.998 50.08L165.63 44.72V42.32H168.158V44.72L167.79 50.08H165.998ZM166.654 54.08C166.291 54.08 165.998 53.9787 165.774 53.776C165.56 53.5627 165.454 53.2907 165.454 52.96C165.454 52.6187 165.56 52.3467 165.774 52.144C165.998 51.9413 166.291 51.84 166.654 51.84H167.134C167.496 51.84 167.784 51.9413 167.998 52.144C168.222 52.3467 168.334 52.6187 168.334 52.96C168.334 53.3013 168.222 53.5733 167.998 53.776C167.784 53.9787 167.491 54.08 167.118 54.08H166.654ZM175.592 50.08L175.224 44.72V42.32H177.752V44.72L177.384 50.08H175.592ZM176.248 54.08C175.885 54.08 175.592 53.9787 175.368 53.776C175.154 53.5627 175.048 53.2907 175.048 52.96C175.048 52.6187 175.154 52.3467 175.368 52.144C175.592 51.9413 175.885 51.84 176.248 51.84H176.728C177.09 51.84 177.378 51.9413 177.592 52.144C177.816 52.3467 177.928 52.6187 177.928 52.96C177.928 53.3013 177.816 53.5733 177.592 53.776C177.378 53.9787 177.085 54.08 176.712 54.08H176.248ZM185.185 50.08L184.817 44.72V42.32H187.345V44.72L186.977 50.08H185.185ZM185.841 54.08C185.479 54.08 185.185 53.9787 184.961 53.776C184.748 53.5627 184.641 53.2907 184.641 52.96C184.641 52.6187 184.748 52.3467 184.961 52.144C185.185 51.9413 185.479 51.84 185.841 51.84H186.321C186.684 51.84 186.972 51.9413 187.185 52.144C187.409 52.3467 187.521 52.6187 187.521 52.96C187.521 53.3013 187.409 53.5733 187.185 53.776C186.972 53.9787 186.679 54.08 186.305 54.08H185.841Z" fill="black"/>
</svg>
