<svg width="181" height="14" viewBox="0 0 181 14" fill="none" xmlns="http://www.w3.org/2000/svg">
  <path d="M1.248 13L0.16 1.32H2.128L2.72 9.128C2.73067 9.27733 2.74133 9.49067 2.752 9.768C2.76267 10.0347 2.77333 10.3173 2.784 10.616C2.80533 10.904 2.816 11.1653 2.816 11.4C2.83733 11.1653 2.85867 10.904 2.88 10.616C2.912 10.3173 2.944 10.0347 2.976 9.768C3.008 9.49067 3.02933 9.27733 3.04 9.128L3.904 1.32H5.728L6.56 9.128C6.58133 9.27733 6.60267 9.49067 6.624 9.768C6.656 10.0347 6.688 10.3173 6.72 10.616C6.76267 10.904 6.79467 11.1653 6.816 11.4C6.82667 11.1653 6.83733 10.904 6.848 10.616C6.85867 10.3173 6.86933 10.0347 6.88 9.768C6.89067 9.49067 6.90133 9.27733 6.912 9.128L7.456 1.32H9.44L8.272 13H5.776L4.992 5.24C4.97067 5.05867 4.94933 4.824 4.928 4.536C4.90667 4.23733 4.88533 3.928 4.864 3.608C4.84267 3.288 4.82133 3.00533 4.8 2.76C4.78933 3.00533 4.77333 3.288 4.752 3.608C4.73067 3.928 4.70933 4.23733 4.688 4.536C4.66667 4.824 4.64533 5.05867 4.624 5.24L3.76 13H1.248ZM13.2578 13.16C12.3724 13.16 11.6684 12.92 11.1458 12.44C10.6338 11.96 10.3778 11.3093 10.3778 10.488C10.3778 9.60267 10.6818 8.92533 11.2898 8.456C11.9084 7.976 12.7938 7.736 13.9458 7.736H15.7698V7.08C15.7698 6.73867 15.6471 6.46667 15.4018 6.264C15.1671 6.06133 14.8471 5.96 14.4418 5.96C14.0684 5.96 13.7591 6.04533 13.5138 6.216C13.2684 6.38667 13.1191 6.62133 13.0658 6.92H10.7458C10.8418 6.03467 11.2258 5.336 11.8978 4.824C12.5804 4.30133 13.4551 4.04 14.5218 4.04C15.6418 4.04 16.5271 4.31733 17.1778 4.872C17.8391 5.416 18.1698 6.152 18.1698 7.08V13H15.8498V11.56H15.4658L15.8658 11C15.8658 11.6613 15.6258 12.1893 15.1458 12.584C14.6764 12.968 14.0471 13.16 13.2578 13.16ZM14.1538 11.4C14.6231 11.4 15.0071 11.2773 15.3058 11.032C15.6151 10.776 15.7698 10.4453 15.7698 10.04V9.096H13.9938C13.6311 9.096 13.3378 9.20267 13.1138 9.416C12.8898 9.61867 12.7778 9.89067 12.7778 10.232C12.7778 10.5947 12.9004 10.8827 13.1458 11.096C13.3911 11.2987 13.7271 11.4 14.1538 11.4ZM23.6195 13.16C22.8942 13.16 22.2595 13.048 21.7155 12.824C21.1715 12.5893 20.7448 12.2693 20.4355 11.864C20.1368 11.4587 19.9875 10.984 19.9875 10.44H22.3875C22.3875 10.696 22.4995 10.904 22.7235 11.064C22.9582 11.2133 23.2568 11.288 23.6195 11.288H24.3235C24.7608 11.288 25.0915 11.208 25.3155 11.048C25.5502 10.888 25.6675 10.664 25.6675 10.376C25.6675 10.1093 25.5662 9.90667 25.3635 9.768C25.1608 9.61867 24.8462 9.51733 24.4195 9.464L23.3955 9.336C22.2968 9.19733 21.4968 8.93067 20.9955 8.536C20.4942 8.14133 20.2435 7.53867 20.2435 6.728C20.2435 5.87467 20.5368 5.21333 21.1235 4.744C21.7102 4.27467 22.5688 4.04 23.6995 4.04H24.3075C25.3848 4.04 26.2435 4.27467 26.8835 4.744C27.5235 5.21333 27.8435 5.84267 27.8435 6.632H25.4435C25.4435 6.41867 25.3368 6.248 25.1235 6.12C24.9208 5.98133 24.6488 5.912 24.3075 5.912H23.6995C23.3048 5.912 23.0168 5.98133 22.8355 6.12C22.6542 6.248 22.5635 6.44533 22.5635 6.712C22.5635 6.95733 22.6435 7.144 22.8035 7.272C22.9742 7.4 23.2408 7.49067 23.6035 7.544L24.7075 7.688C25.8168 7.82667 26.6382 8.104 27.1715 8.52C27.7155 8.936 27.9875 9.55467 27.9875 10.376C27.9875 11.272 27.6782 11.96 27.0595 12.44C26.4408 12.92 25.5288 13.16 24.3235 13.16H23.6195ZM43.191 13.16C42.4123 13.16 41.7297 13.016 41.143 12.728C40.567 12.4293 40.119 12.0187 39.799 11.496C39.4897 10.9627 39.335 10.344 39.335 9.64V7.56C39.335 6.856 39.4897 6.24267 39.799 5.72C40.119 5.18667 40.567 4.776 41.143 4.488C41.7297 4.18933 42.4123 4.04 43.191 4.04C43.9697 4.04 44.6417 4.18933 45.207 4.488C45.783 4.776 46.2257 5.18667 46.535 5.72C46.855 6.24267 47.015 6.856 47.015 7.56V9.16H41.623V9.64C41.623 10.1947 41.7563 10.616 42.023 10.904C42.2897 11.1813 42.6897 11.32 43.223 11.32C43.5963 11.32 43.895 11.256 44.119 11.128C44.3537 11 44.5083 10.824 44.583 10.6H46.935C46.743 11.368 46.3057 11.9867 45.623 12.456C44.951 12.9253 44.1403 13.16 43.191 13.16ZM44.727 7.928V7.528C44.727 6.984 44.599 6.568 44.343 6.28C44.0977 5.992 43.7137 5.848 43.191 5.848C42.6683 5.848 42.2737 5.99733 42.007 6.296C41.751 6.59467 41.623 7.016 41.623 7.56V7.8L44.887 7.768L44.727 7.928ZM52.4008 13.16C51.6754 13.16 51.0408 13.048 50.4968 12.824C49.9528 12.5893 49.5261 12.2693 49.2168 11.864C48.9181 11.4587 48.7688 10.984 48.7688 10.44H51.1688C51.1688 10.696 51.2808 10.904 51.5048 11.064C51.7394 11.2133 52.0381 11.288 52.4008 11.288H53.1048C53.5421 11.288 53.8728 11.208 54.0968 11.048C54.3314 10.888 54.4488 10.664 54.4488 10.376C54.4488 10.1093 54.3474 9.90667 54.1448 9.768C53.9421 9.61867 53.6274 9.51733 53.2008 9.464L52.1768 9.336C51.0781 9.19733 50.2781 8.93067 49.7768 8.536C49.2754 8.14133 49.0247 7.53867 49.0247 6.728C49.0247 5.87467 49.3181 5.21333 49.9048 4.744C50.4914 4.27467 51.3501 4.04 52.4808 4.04H53.0888C54.1661 4.04 55.0248 4.27467 55.6648 4.744C56.3048 5.21333 56.6248 5.84267 56.6248 6.632H54.2248C54.2248 6.41867 54.1181 6.248 53.9048 6.12C53.7021 5.98133 53.4301 5.912 53.0888 5.912H52.4808C52.0861 5.912 51.7981 5.98133 51.6168 6.12C51.4354 6.248 51.3448 6.44533 51.3448 6.712C51.3448 6.95733 51.4248 7.144 51.5848 7.272C51.7554 7.4 52.0221 7.49067 52.3848 7.544L53.4888 7.688C54.5981 7.82667 55.4194 8.104 55.9528 8.52C56.4968 8.936 56.7688 9.55467 56.7688 10.376C56.7688 11.272 56.4594 11.96 55.8408 12.44C55.2221 12.92 54.3101 13.16 53.1048 13.16H52.4008ZM61.9945 13.16C61.2692 13.16 60.6345 13.048 60.0905 12.824C59.5465 12.5893 59.1198 12.2693 58.8105 11.864C58.5118 11.4587 58.3625 10.984 58.3625 10.44H60.7625C60.7625 10.696 60.8745 10.904 61.0985 11.064C61.3332 11.2133 61.6318 11.288 61.9945 11.288H62.6985C63.1358 11.288 63.4665 11.208 63.6905 11.048C63.9252 10.888 64.0425 10.664 64.0425 10.376C64.0425 10.1093 63.9412 9.90667 63.7385 9.768C63.5358 9.61867 63.2212 9.51733 62.7945 9.464L61.7705 9.336C60.6718 9.19733 59.8718 8.93067 59.3705 8.536C58.8692 8.14133 58.6185 7.53867 58.6185 6.728C58.6185 5.87467 58.9118 5.21333 59.4985 4.744C60.0852 4.27467 60.9438 4.04 62.0745 4.04H62.6825C63.7598 4.04 64.6185 4.27467 65.2585 4.744C65.8985 5.21333 66.2185 5.84267 66.2185 6.632H63.8185C63.8185 6.41867 63.7118 6.248 63.4985 6.12C63.2958 5.98133 63.0238 5.912 62.6825 5.912H62.0745C61.6798 5.912 61.3918 5.98133 61.2105 6.12C61.0292 6.248 60.9385 6.44533 60.9385 6.712C60.9385 6.95733 61.0185 7.144 61.1785 7.272C61.3492 7.4 61.6158 7.49067 61.9785 7.544L63.0825 7.688C64.1918 7.82667 65.0132 8.104 65.5465 8.52C66.0905 8.936 66.3625 9.55467 66.3625 10.376C66.3625 11.272 66.0532 11.96 65.4345 12.44C64.8158 12.92 63.9038 13.16 62.6985 13.16H61.9945ZM71.9723 13.16C71.1936 13.16 70.5109 13.016 69.9243 12.728C69.3483 12.4293 68.9003 12.0187 68.5803 11.496C68.2709 10.9627 68.1163 10.344 68.1163 9.64V7.56C68.1163 6.856 68.2709 6.24267 68.5803 5.72C68.9003 5.18667 69.3483 4.776 69.9243 4.488C70.5109 4.18933 71.1936 4.04 71.9723 4.04C72.7509 4.04 73.4229 4.18933 73.9883 4.488C74.5643 4.776 75.0069 5.18667 75.3163 5.72C75.6363 6.24267 75.7963 6.856 75.7963 7.56V9.16H70.4043V9.64C70.4043 10.1947 70.5376 10.616 70.8043 10.904C71.0709 11.1813 71.4709 11.32 72.0043 11.32C72.3776 11.32 72.6763 11.256 72.9003 11.128C73.1349 11 73.2896 10.824 73.3643 10.6H75.7163C75.5243 11.368 75.0869 11.9867 74.4043 12.456C73.7323 12.9253 72.9216 13.16 71.9723 13.16ZM73.5083 7.928V7.528C73.5083 6.984 73.3803 6.568 73.1243 6.28C72.8789 5.992 72.4949 5.848 71.9723 5.848C71.4496 5.848 71.0549 5.99733 70.7883 6.296C70.5323 6.59467 70.4043 7.016 70.4043 7.56V7.8L73.6683 7.768L73.5083 7.928ZM87.4638 13V10.824H90.5038V6.36H87.8638V4.2H92.7438V10.824H95.3038V13H87.4638ZM91.4638 2.808C91.0264 2.808 90.6744 2.696 90.4078 2.472C90.1518 2.248 90.0238 1.944 90.0238 1.56C90.0238 1.176 90.1518 0.871999 90.4078 0.648C90.6744 0.423999 91.0264 0.311999 91.4638 0.311999C91.9011 0.311999 92.2478 0.423999 92.5038 0.648C92.7704 0.871999 92.9038 1.176 92.9038 1.56C92.9038 1.944 92.7704 2.248 92.5038 2.472C92.2478 2.696 91.9011 2.808 91.4638 2.808ZM100.786 13.16C100.007 13.16 99.3242 13.016 98.7375 12.728C98.1508 12.4293 97.6975 12.0187 97.3775 11.496C97.0575 10.9627 96.8975 10.344 96.8975 9.64V7.56C96.8975 6.84533 97.0575 6.22667 97.3775 5.704C97.6975 5.18133 98.1508 4.776 98.7375 4.488C99.3242 4.18933 100.007 4.04 100.786 4.04C101.948 4.04 102.876 4.33333 103.57 4.92C104.263 5.50667 104.631 6.30667 104.674 7.32H102.274C102.242 6.94667 102.092 6.65333 101.826 6.44C101.57 6.22667 101.223 6.12 100.786 6.12C100.306 6.12 99.9375 6.24267 99.6815 6.488C99.4255 6.73333 99.2975 7.09067 99.2975 7.56V9.64C99.2975 10.0987 99.4255 10.456 99.6815 10.712C99.9375 10.9573 100.306 11.08 100.786 11.08C101.223 11.08 101.57 10.9787 101.826 10.776C102.092 10.5627 102.242 10.264 102.274 9.88H104.674C104.631 10.8933 104.263 11.6933 103.57 12.28C102.876 12.8667 101.948 13.16 100.786 13.16ZM106.587 13V1.32H108.987V4.2L108.907 5.88H109.611L108.907 6.44C108.907 5.69333 109.121 5.10667 109.547 4.68C109.974 4.25333 110.55 4.04 111.275 4.04C112.129 4.04 112.811 4.33867 113.323 4.936C113.846 5.53333 114.107 6.328 114.107 7.32V13H111.707V7.56C111.707 7.10133 111.585 6.74933 111.339 6.504C111.105 6.248 110.769 6.12 110.331 6.12C109.905 6.12 109.574 6.248 109.339 6.504C109.105 6.74933 108.987 7.10133 108.987 7.56V13H106.587ZM125.775 13V1.32H128.175V4.2L128.095 5.88H128.799L128.095 6.44C128.095 5.69333 128.308 5.10667 128.735 4.68C129.161 4.25333 129.737 4.04 130.463 4.04C131.316 4.04 131.999 4.33867 132.511 4.936C133.033 5.53333 133.295 6.328 133.295 7.32V13H130.895V7.56C130.895 7.10133 130.772 6.74933 130.527 6.504C130.292 6.248 129.956 6.12 129.519 6.12C129.092 6.12 128.761 6.248 128.527 6.504C128.292 6.74933 128.175 7.10133 128.175 7.56V13H125.775ZM139.129 13.16C138.35 13.16 137.667 13.016 137.081 12.728C136.505 12.4293 136.057 12.0187 135.737 11.496C135.427 10.9627 135.273 10.344 135.273 9.64V7.56C135.273 6.856 135.427 6.24267 135.737 5.72C136.057 5.18667 136.505 4.776 137.081 4.488C137.667 4.18933 138.35 4.04 139.129 4.04C139.907 4.04 140.579 4.18933 141.145 4.488C141.721 4.776 142.163 5.18667 142.473 5.72C142.793 6.24267 142.953 6.856 142.953 7.56V9.16H137.561V9.64C137.561 10.1947 137.694 10.616 137.961 10.904C138.227 11.1813 138.627 11.32 139.161 11.32C139.534 11.32 139.833 11.256 140.057 11.128C140.291 11 140.446 10.824 140.521 10.6H142.873C142.681 11.368 142.243 11.9867 141.561 12.456C140.889 12.9253 140.078 13.16 139.129 13.16ZM140.665 7.928V7.528C140.665 6.984 140.537 6.568 140.281 6.28C140.035 5.992 139.651 5.848 139.129 5.848C138.606 5.848 138.211 5.99733 137.945 6.296C137.689 6.59467 137.561 7.016 137.561 7.56V7.8L140.825 7.768L140.665 7.928ZM148.706 13.16C147.522 13.16 146.594 12.84 145.922 12.2C145.261 11.56 144.93 10.6853 144.93 9.576V4.2H147.33V9.56C147.33 10.0507 147.448 10.4293 147.682 10.696C147.917 10.952 148.258 11.08 148.706 11.08C149.144 11.08 149.48 10.952 149.714 10.696C149.96 10.4293 150.082 10.0507 150.082 9.56V4.2H152.482V9.576C152.482 10.696 152.146 11.576 151.474 12.216C150.802 12.8453 149.88 13.16 148.706 13.16ZM159.26 13C158.364 13 157.66 12.744 157.148 12.232C156.636 11.72 156.38 11.016 156.38 10.12V6.36H154.06V4.2H156.38V1.72H158.78V4.2H162.06V6.36H158.78V10.12C158.78 10.6 159.02 10.84 159.5 10.84H161.9V13H159.26ZM167.91 13.16C167.131 13.16 166.448 13.016 165.862 12.728C165.286 12.4293 164.838 12.0187 164.518 11.496C164.208 10.9627 164.054 10.344 164.054 9.64V7.56C164.054 6.856 164.208 6.24267 164.518 5.72C164.838 5.18667 165.286 4.776 165.862 4.488C166.448 4.18933 167.131 4.04 167.91 4.04C168.688 4.04 169.36 4.18933 169.926 4.488C170.502 4.776 170.944 5.18667 171.254 5.72C171.574 6.24267 171.734 6.856 171.734 7.56V9.16H166.342V9.64C166.342 10.1947 166.475 10.616 166.742 10.904C167.008 11.1813 167.408 11.32 167.942 11.32C168.315 11.32 168.614 11.256 168.838 11.128C169.072 11 169.227 10.824 169.302 10.6H171.654C171.462 11.368 171.024 11.9867 170.342 12.456C169.67 12.9253 168.859 13.16 167.91 13.16ZM169.446 7.928V7.528C169.446 6.984 169.318 6.568 169.062 6.28C168.816 5.992 168.432 5.848 167.91 5.848C167.387 5.848 166.992 5.99733 166.726 6.296C166.47 6.59467 166.342 7.016 166.342 7.56V7.8L169.606 7.768L169.446 7.928ZM175.584 9.4L175.504 5.96H177.104C177.541 5.96 177.888 5.85333 178.144 5.64C178.4 5.416 178.528 5.12267 178.528 4.76C178.528 4.38667 178.394 4.09333 178.128 3.88C177.872 3.66667 177.525 3.56 177.088 3.56H174.448V1.32H176.928C177.749 1.32 178.458 1.464 179.056 1.752C179.653 2.02933 180.112 2.424 180.432 2.936C180.762 3.448 180.928 4.056 180.928 4.76C180.928 5.432 180.789 6.01867 180.512 6.52C180.234 7.02133 179.845 7.416 179.344 7.704C178.842 7.98133 178.256 8.12 177.584 8.12V9.4H175.584ZM176.352 13.08C175.989 13.08 175.696 12.9787 175.472 12.776C175.258 12.5627 175.152 12.2907 175.152 11.96C175.152 11.6187 175.258 11.3467 175.472 11.144C175.696 10.9413 175.989 10.84 176.352 10.84H176.832C177.194 10.84 177.482 10.9413 177.696 11.144C177.92 11.3467 178.032 11.6187 178.032 11.96C178.032 12.3013 177.92 12.5733 177.696 12.776C177.482 12.9787 177.189 13.08 176.816 13.08H176.352Z" fill="#6AA07C"/>
</svg>
