<svg width="277" height="14" viewBox="0 0 277 14" fill="none" xmlns="http://www.w3.org/2000/svg">
  <path d="M1.248 13L0.16 1.32H2.128L2.72 9.128C2.73067 9.27733 2.74133 9.49067 2.752 9.768C2.76267 10.0347 2.77333 10.3173 2.784 10.616C2.80533 10.904 2.816 11.1653 2.816 11.4C2.83733 11.1653 2.85867 10.904 2.88 10.616C2.912 10.3173 2.944 10.0347 2.976 9.768C3.008 9.49067 3.02933 9.27733 3.04 9.128L3.904 1.32H5.728L6.56 9.128C6.58133 9.27733 6.60267 9.49067 6.624 9.768C6.656 10.0347 6.688 10.3173 6.72 10.616C6.76267 10.904 6.79467 11.1653 6.816 11.4C6.82667 11.1653 6.83733 10.904 6.848 10.616C6.85867 10.3173 6.86933 10.0347 6.88 9.768C6.89067 9.49067 6.90133 9.27733 6.912 9.128L7.456 1.32H9.44L8.272 13H5.776L4.992 5.24C4.97067 5.05867 4.94933 4.824 4.928 4.536C4.90667 4.23733 4.88533 3.928 4.864 3.608C4.84267 3.288 4.82133 3.00533 4.8 2.76C4.78933 3.00533 4.77333 3.288 4.752 3.608C4.73067 3.928 4.70933 4.23733 4.688 4.536C4.66667 4.824 4.64533 5.05867 4.624 5.24L3.76 13H1.248ZM13.2578 13.16C12.3724 13.16 11.6684 12.92 11.1458 12.44C10.6338 11.96 10.3778 11.3093 10.3778 10.488C10.3778 9.60267 10.6818 8.92533 11.2898 8.456C11.9084 7.976 12.7938 7.736 13.9458 7.736H15.7698V7.08C15.7698 6.73867 15.6471 6.46667 15.4018 6.264C15.1671 6.06133 14.8471 5.96 14.4418 5.96C14.0684 5.96 13.7591 6.04533 13.5138 6.216C13.2684 6.38667 13.1191 6.62133 13.0658 6.92H10.7458C10.8418 6.03467 11.2258 5.336 11.8978 4.824C12.5804 4.30133 13.4551 4.04 14.5218 4.04C15.6418 4.04 16.5271 4.31733 17.1778 4.872C17.8391 5.416 18.1698 6.152 18.1698 7.08V13H15.8498V11.56H15.4658L15.8658 11C15.8658 11.6613 15.6258 12.1893 15.1458 12.584C14.6764 12.968 14.0471 13.16 13.2578 13.16ZM14.1538 11.4C14.6231 11.4 15.0071 11.2773 15.3058 11.032C15.6151 10.776 15.7698 10.4453 15.7698 10.04V9.096H13.9938C13.6311 9.096 13.3378 9.20267 13.1138 9.416C12.8898 9.61867 12.7778 9.89067 12.7778 10.232C12.7778 10.5947 12.9004 10.8827 13.1458 11.096C13.3911 11.2987 13.7271 11.4 14.1538 11.4ZM23.6195 13.16C22.8942 13.16 22.2595 13.048 21.7155 12.824C21.1715 12.5893 20.7448 12.2693 20.4355 11.864C20.1368 11.4587 19.9875 10.984 19.9875 10.44H22.3875C22.3875 10.696 22.4995 10.904 22.7235 11.064C22.9582 11.2133 23.2568 11.288 23.6195 11.288H24.3235C24.7608 11.288 25.0915 11.208 25.3155 11.048C25.5502 10.888 25.6675 10.664 25.6675 10.376C25.6675 10.1093 25.5662 9.90667 25.3635 9.768C25.1608 9.61867 24.8462 9.51733 24.4195 9.464L23.3955 9.336C22.2968 9.19733 21.4968 8.93067 20.9955 8.536C20.4942 8.14133 20.2435 7.53867 20.2435 6.728C20.2435 5.87467 20.5368 5.21333 21.1235 4.744C21.7102 4.27467 22.5688 4.04 23.6995 4.04H24.3075C25.3848 4.04 26.2435 4.27467 26.8835 4.744C27.5235 5.21333 27.8435 5.84267 27.8435 6.632H25.4435C25.4435 6.41867 25.3368 6.248 25.1235 6.12C24.9208 5.98133 24.6488 5.912 24.3075 5.912H23.6995C23.3048 5.912 23.0168 5.98133 22.8355 6.12C22.6542 6.248 22.5635 6.44533 22.5635 6.712C22.5635 6.95733 22.6435 7.144 22.8035 7.272C22.9742 7.4 23.2408 7.49067 23.6035 7.544L24.7075 7.688C25.8168 7.82667 26.6382 8.104 27.1715 8.52C27.7155 8.936 27.9875 9.55467 27.9875 10.376C27.9875 11.272 27.6782 11.96 27.0595 12.44C26.4408 12.92 25.5288 13.16 24.3235 13.16H23.6195ZM39.495 13V10.824H42.535V6.36H39.895V4.2H44.775V10.824H47.335V13H39.495ZM43.495 2.808C43.0577 2.808 42.7057 2.696 42.439 2.472C42.183 2.248 42.055 1.944 42.055 1.56C42.055 1.176 42.183 0.871999 42.439 0.648C42.7057 0.423999 43.0577 0.311999 43.495 0.311999C43.9323 0.311999 44.279 0.423999 44.535 0.648C44.8017 0.871999 44.935 1.176 44.935 1.56C44.935 1.944 44.8017 2.248 44.535 2.472C44.279 2.696 43.9323 2.808 43.495 2.808ZM52.4008 13.16C51.6754 13.16 51.0408 13.048 50.4968 12.824C49.9528 12.5893 49.5261 12.2693 49.2168 11.864C48.9181 11.4587 48.7688 10.984 48.7688 10.44H51.1688C51.1688 10.696 51.2808 10.904 51.5048 11.064C51.7394 11.2133 52.0381 11.288 52.4008 11.288H53.1048C53.5421 11.288 53.8728 11.208 54.0968 11.048C54.3314 10.888 54.4488 10.664 54.4488 10.376C54.4488 10.1093 54.3474 9.90667 54.1448 9.768C53.9421 9.61867 53.6274 9.51733 53.2008 9.464L52.1768 9.336C51.0781 9.19733 50.2781 8.93067 49.7768 8.536C49.2754 8.14133 49.0247 7.53867 49.0247 6.728C49.0247 5.87467 49.3181 5.21333 49.9048 4.744C50.4914 4.27467 51.3501 4.04 52.4808 4.04H53.0888C54.1661 4.04 55.0248 4.27467 55.6648 4.744C56.3048 5.21333 56.6248 5.84267 56.6248 6.632H54.2248C54.2248 6.41867 54.1181 6.248 53.9048 6.12C53.7021 5.98133 53.4301 5.912 53.0888 5.912H52.4808C52.0861 5.912 51.7981 5.98133 51.6168 6.12C51.4354 6.248 51.3448 6.44533 51.3448 6.712C51.3448 6.95733 51.4248 7.144 51.5848 7.272C51.7554 7.4 52.0221 7.49067 52.3848 7.544L53.4888 7.688C54.5981 7.82667 55.4194 8.104 55.9528 8.52C56.4968 8.936 56.7688 9.55467 56.7688 10.376C56.7688 11.272 56.4594 11.96 55.8408 12.44C55.2221 12.92 54.3101 13.16 53.1048 13.16H52.4008ZM63.3225 13C62.4265 13 61.7225 12.744 61.2105 12.232C60.6985 11.72 60.4425 11.016 60.4425 10.12V6.36H58.1225V4.2H60.4425V1.72H62.8425V4.2H66.1225V6.36H62.8425V10.12C62.8425 10.6 63.0825 10.84 63.5625 10.84H65.9625V13H63.3225ZM80.638 13.16C79.7527 13.16 79.0433 12.8507 78.51 12.232C77.9767 11.6133 77.71 10.776 77.71 9.72V7.48C77.71 6.43467 77.9767 5.60267 78.51 4.984C79.0433 4.35467 79.7527 4.04 80.638 4.04C81.3633 4.04 81.934 4.25333 82.35 4.68C82.766 5.096 82.974 5.68267 82.974 6.44L82.414 5.88H82.974L82.894 3.72V1.32H85.294V13H82.974V11.32H82.414L82.974 10.76C82.974 11.5173 82.766 12.1093 82.35 12.536C81.934 12.952 81.3633 13.16 80.638 13.16ZM81.502 11.08C81.9393 11.08 82.2807 10.9573 82.526 10.712C82.7713 10.456 82.894 10.0987 82.894 9.64V7.56C82.894 7.10133 82.7713 6.74933 82.526 6.504C82.2807 6.248 81.9393 6.12 81.502 6.12C81.054 6.12 80.7073 6.248 80.462 6.504C80.2273 6.74933 80.11 7.10133 80.11 7.56V9.64C80.11 10.0987 80.2273 10.456 80.462 10.712C80.7073 10.9573 81.054 11.08 81.502 11.08ZM90.0078 13.16C89.1224 13.16 88.4184 12.92 87.8958 12.44C87.3838 11.96 87.1278 11.3093 87.1278 10.488C87.1278 9.60267 87.4318 8.92533 88.0398 8.456C88.6584 7.976 89.5438 7.736 90.6958 7.736H92.5198V7.08C92.5198 6.73867 92.3971 6.46667 92.1518 6.264C91.9171 6.06133 91.5971 5.96 91.1918 5.96C90.8184 5.96 90.5091 6.04533 90.2638 6.216C90.0184 6.38667 89.8691 6.62133 89.8158 6.92H87.4958C87.5918 6.03467 87.9758 5.336 88.6478 4.824C89.3304 4.30133 90.2051 4.04 91.2718 4.04C92.3918 4.04 93.2771 4.31733 93.9278 4.872C94.5891 5.416 94.9198 6.152 94.9198 7.08V13H92.5998V11.56H92.2158L92.6158 11C92.6158 11.6613 92.3758 12.1893 91.8958 12.584C91.4264 12.968 90.7971 13.16 90.0078 13.16ZM90.9038 11.4C91.3731 11.4 91.7571 11.2773 92.0558 11.032C92.3651 10.776 92.5198 10.4453 92.5198 10.04V9.096H90.7438C90.3811 9.096 90.0878 9.20267 89.8638 9.416C89.6398 9.61867 89.5278 9.89067 89.5278 10.232C89.5278 10.5947 89.6504 10.8827 89.8958 11.096C90.1411 11.2987 90.4771 11.4 90.9038 11.4ZM100.37 13.16C99.6442 13.16 99.0095 13.048 98.4655 12.824C97.9215 12.5893 97.4948 12.2693 97.1855 11.864C96.8868 11.4587 96.7375 10.984 96.7375 10.44H99.1375C99.1375 10.696 99.2495 10.904 99.4735 11.064C99.7082 11.2133 100.007 11.288 100.37 11.288H101.074C101.511 11.288 101.842 11.208 102.066 11.048C102.3 10.888 102.418 10.664 102.418 10.376C102.418 10.1093 102.316 9.90667 102.114 9.768C101.911 9.61867 101.596 9.51733 101.17 9.464L100.146 9.336C99.0468 9.19733 98.2468 8.93067 97.7455 8.536C97.2442 8.14133 96.9935 7.53867 96.9935 6.728C96.9935 5.87467 97.2868 5.21333 97.8735 4.744C98.4602 4.27467 99.3188 4.04 100.45 4.04H101.058C102.135 4.04 102.994 4.27467 103.634 4.744C104.274 5.21333 104.594 5.84267 104.594 6.632H102.194C102.194 6.41867 102.087 6.248 101.874 6.12C101.671 5.98133 101.399 5.912 101.058 5.912H100.45C100.055 5.912 99.7668 5.98133 99.5855 6.12C99.4042 6.248 99.3135 6.44533 99.3135 6.712C99.3135 6.95733 99.3935 7.144 99.5535 7.272C99.7242 7.4 99.9908 7.49067 100.354 7.544L101.458 7.688C102.567 7.82667 103.388 8.104 103.922 8.52C104.466 8.936 104.738 9.55467 104.738 10.376C104.738 11.272 104.428 11.96 103.81 12.44C103.191 12.92 102.279 13.16 101.074 13.16H100.37ZM118.245 13V7.4H115.909V5.24H118.245V4.04C118.245 3.21867 118.522 2.56267 119.077 2.072C119.642 1.57067 120.378 1.32 121.285 1.32H123.861V3.4H121.365C121.152 3.4 120.976 3.46933 120.837 3.608C120.709 3.736 120.645 3.90667 120.645 4.12V5.24H123.861V7.4H120.645V13H118.245ZM129.519 13.16C128.335 13.16 127.407 12.84 126.735 12.2C126.073 11.56 125.743 10.6853 125.743 9.576V4.2H128.143V9.56C128.143 10.0507 128.26 10.4293 128.495 10.696C128.729 10.952 129.071 11.08 129.519 11.08C129.956 11.08 130.292 10.952 130.527 10.696C130.772 10.4293 130.895 10.0507 130.895 9.56V4.2H133.295V9.576C133.295 10.696 132.959 11.576 132.287 12.216C131.615 12.8453 130.692 13.16 129.519 13.16ZM131.471 2.808C131.076 2.808 130.761 2.696 130.527 2.472C130.303 2.248 130.191 1.944 130.191 1.56C130.191 1.176 130.303 0.871999 130.527 0.648C130.761 0.423999 131.076 0.311999 131.471 0.311999C131.865 0.311999 132.175 0.423999 132.399 0.648C132.633 0.871999 132.751 1.176 132.751 1.56C132.751 1.944 132.633 2.248 132.399 2.472C132.175 2.696 131.865 2.808 131.471 2.808ZM127.567 2.808C127.172 2.808 126.857 2.696 126.623 2.472C126.399 2.248 126.287 1.944 126.287 1.56C126.287 1.176 126.399 0.871999 126.623 0.648C126.857 0.423999 127.172 0.311999 127.567 0.311999C127.961 0.311999 128.271 0.423999 128.495 0.648C128.729 0.871999 128.847 1.176 128.847 1.56C128.847 1.944 128.729 2.248 128.495 2.472C128.271 2.696 127.961 2.808 127.567 2.808ZM135.625 13V4.2H137.865V5.88H138.473L137.785 6.904C137.785 5.95467 138.003 5.24 138.441 4.76C138.878 4.28 139.518 4.04 140.361 4.04C141.331 4.04 142.083 4.33333 142.617 4.92C143.161 5.50667 143.433 6.33333 143.433 7.4V8.12H140.873V7.56C140.873 7.08 140.739 6.70667 140.473 6.44C140.217 6.17333 139.87 6.04 139.433 6.04C138.974 6.04 138.622 6.17333 138.377 6.44C138.142 6.70667 138.025 7.08 138.025 7.56V13H135.625ZM158.316 13.16C157.537 13.16 156.855 13.016 156.268 12.728C155.692 12.4293 155.244 12.0187 154.924 11.496C154.615 10.9627 154.46 10.344 154.46 9.64V7.56C154.46 6.856 154.615 6.24267 154.924 5.72C155.244 5.18667 155.692 4.776 156.268 4.488C156.855 4.18933 157.537 4.04 158.316 4.04C159.095 4.04 159.767 4.18933 160.332 4.488C160.908 4.776 161.351 5.18667 161.66 5.72C161.98 6.24267 162.14 6.856 162.14 7.56V9.16H156.748V9.64C156.748 10.1947 156.881 10.616 157.148 10.904C157.415 11.1813 157.815 11.32 158.348 11.32C158.721 11.32 159.02 11.256 159.244 11.128C159.479 11 159.633 10.824 159.708 10.6H162.06C161.868 11.368 161.431 11.9867 160.748 12.456C160.076 12.9253 159.265 13.16 158.316 13.16ZM159.852 7.928V7.528C159.852 6.984 159.724 6.568 159.468 6.28C159.223 5.992 158.839 5.848 158.316 5.848C157.793 5.848 157.399 5.99733 157.132 6.296C156.876 6.59467 156.748 7.016 156.748 7.56V7.8L160.012 7.768L159.852 7.928ZM164.214 13V10.824H167.254V6.36H164.614V4.2H169.494V10.824H172.054V13H164.214ZM168.214 2.808C167.776 2.808 167.424 2.696 167.158 2.472C166.902 2.248 166.774 1.944 166.774 1.56C166.774 1.176 166.902 0.871999 167.158 0.648C167.424 0.423999 167.776 0.311999 168.214 0.311999C168.651 0.311999 168.998 0.423999 169.254 0.648C169.52 0.871999 169.654 1.176 169.654 1.56C169.654 1.944 169.52 2.248 169.254 2.472C168.998 2.696 168.651 2.808 168.214 2.808ZM173.743 13V4.2H176.064V5.88H176.768L176.064 6.44C176.064 5.69333 176.277 5.10667 176.704 4.68C177.13 4.25333 177.706 4.04 178.432 4.04C179.285 4.04 179.968 4.33867 180.48 4.936C181.002 5.53333 181.264 6.328 181.264 7.32V13H178.864V7.56C178.864 7.10133 178.741 6.74933 178.496 6.504C178.261 6.248 177.925 6.12 177.488 6.12C177.061 6.12 176.73 6.248 176.496 6.504C176.261 6.74933 176.144 7.10133 176.144 7.56V13H173.743ZM196.739 13.16C195.96 13.16 195.278 13.016 194.691 12.728C194.104 12.4293 193.646 12.0187 193.315 11.496C192.995 10.9627 192.835 10.344 192.835 9.64V4.68C192.835 3.96533 192.995 3.34667 193.315 2.824C193.646 2.30133 194.104 1.896 194.691 1.608C195.278 1.30933 195.96 1.16 196.739 1.16C197.528 1.16 198.211 1.30933 198.787 1.608C199.374 1.896 199.827 2.30133 200.147 2.824C200.478 3.34667 200.643 3.96533 200.643 4.68H198.243C198.243 4.21067 198.11 3.85333 197.843 3.608C197.587 3.36267 197.219 3.24 196.739 3.24C196.259 3.24 195.886 3.36267 195.619 3.608C195.363 3.85333 195.235 4.21067 195.235 4.68V9.64C195.235 10.0987 195.363 10.456 195.619 10.712C195.886 10.9573 196.259 11.08 196.739 11.08C197.219 11.08 197.587 10.9573 197.843 10.712C198.11 10.456 198.243 10.0987 198.243 9.64V8.632H196.515V6.6H200.643V9.64C200.643 10.344 200.478 10.9627 200.147 11.496C199.827 12.0187 199.374 12.4293 198.787 12.728C198.211 13.016 197.528 13.16 196.739 13.16ZM206.285 13.16C205.506 13.16 204.823 13.016 204.237 12.728C203.661 12.4293 203.213 12.0187 202.893 11.496C202.583 10.9627 202.429 10.344 202.429 9.64V7.56C202.429 6.856 202.583 6.24267 202.893 5.72C203.213 5.18667 203.661 4.776 204.237 4.488C204.823 4.18933 205.506 4.04 206.285 4.04C207.063 4.04 207.735 4.18933 208.301 4.488C208.877 4.776 209.319 5.18667 209.629 5.72C209.949 6.24267 210.109 6.856 210.109 7.56V9.16H204.717V9.64C204.717 10.1947 204.85 10.616 205.117 10.904C205.383 11.1813 205.783 11.32 206.317 11.32C206.69 11.32 206.989 11.256 207.213 11.128C207.447 11 207.602 10.824 207.677 10.6H210.029C209.837 11.368 209.399 11.9867 208.717 12.456C208.045 12.9253 207.234 13.16 206.285 13.16ZM207.821 7.928V7.528C207.821 6.984 207.693 6.568 207.437 6.28C207.191 5.992 206.807 5.848 206.285 5.848C205.762 5.848 205.367 5.99733 205.101 6.296C204.845 6.59467 204.717 7.016 204.717 7.56V7.8L207.981 7.768L207.821 7.928ZM212.375 13V4.2H214.615V5.88H215.223L214.535 6.904C214.535 5.95467 214.753 5.24 215.191 4.76C215.628 4.28 216.268 4.04 217.111 4.04C218.081 4.04 218.833 4.33333 219.367 4.92C219.911 5.50667 220.183 6.33333 220.183 7.4V8.12H217.623V7.56C217.623 7.08 217.489 6.70667 217.223 6.44C216.967 6.17333 216.62 6.04 216.183 6.04C215.724 6.04 215.372 6.17333 215.127 6.44C214.892 6.70667 214.775 7.08 214.775 7.56V13H212.375ZM224.32 13.16C223.435 13.16 222.731 12.92 222.208 12.44C221.696 11.96 221.44 11.3093 221.44 10.488C221.44 9.60267 221.744 8.92533 222.352 8.456C222.971 7.976 223.856 7.736 225.008 7.736H226.832V7.08C226.832 6.73867 226.71 6.46667 226.464 6.264C226.23 6.06133 225.91 5.96 225.504 5.96C225.131 5.96 224.822 6.04533 224.576 6.216C224.331 6.38667 224.182 6.62133 224.128 6.92H221.808C221.904 6.03467 222.288 5.336 222.96 4.824C223.643 4.30133 224.518 4.04 225.584 4.04C226.704 4.04 227.59 4.31733 228.24 4.872C228.902 5.416 229.232 6.152 229.232 7.08V13H226.912V11.56H226.528L226.928 11C226.928 11.6613 226.688 12.1893 226.208 12.584C225.739 12.968 225.11 13.16 224.32 13.16ZM225.216 11.4C225.686 11.4 226.07 11.2773 226.368 11.032C226.678 10.776 226.832 10.4453 226.832 10.04V9.096H225.056C224.694 9.096 224.4 9.20267 224.176 9.416C223.952 9.61867 223.84 9.89067 223.84 10.232C223.84 10.5947 223.963 10.8827 224.208 11.096C224.454 11.2987 224.79 11.4 225.216 11.4ZM227.488 2.808C227.094 2.808 226.779 2.696 226.544 2.472C226.32 2.248 226.208 1.944 226.208 1.56C226.208 1.176 226.32 0.871999 226.544 0.648C226.779 0.423999 227.094 0.311999 227.488 0.311999C227.883 0.311999 228.192 0.423999 228.416 0.648C228.651 0.871999 228.768 1.176 228.768 1.56C228.768 1.944 228.651 2.248 228.416 2.472C228.192 2.696 227.883 2.808 227.488 2.808ZM223.584 2.808C223.19 2.808 222.875 2.696 222.64 2.472C222.416 2.248 222.304 1.944 222.304 1.56C222.304 1.176 222.416 0.871999 222.64 0.648C222.875 0.423999 223.19 0.311999 223.584 0.311999C223.979 0.311999 224.288 0.423999 224.512 0.648C224.747 0.871999 224.864 1.176 224.864 1.56C224.864 1.944 224.747 2.248 224.512 2.472C224.288 2.696 223.979 2.808 223.584 2.808ZM235.05 13.16C233.866 13.16 232.938 12.84 232.266 12.2C231.605 11.56 231.274 10.6853 231.274 9.576V4.2H233.674V9.56C233.674 10.0507 233.791 10.4293 234.026 10.696C234.261 10.952 234.602 11.08 235.05 11.08C235.487 11.08 235.823 10.952 236.058 10.696C236.303 10.4293 236.426 10.0507 236.426 9.56V4.2H238.826V9.576C238.826 10.696 238.49 11.576 237.818 12.216C237.146 12.8453 236.223 13.16 235.05 13.16ZM244.276 13.16C243.55 13.16 242.916 13.048 242.372 12.824C241.828 12.5893 241.401 12.2693 241.092 11.864C240.793 11.4587 240.644 10.984 240.644 10.44H243.044C243.044 10.696 243.156 10.904 243.38 11.064C243.614 11.2133 243.913 11.288 244.276 11.288H244.98C245.417 11.288 245.748 11.208 245.972 11.048C246.206 10.888 246.324 10.664 246.324 10.376C246.324 10.1093 246.222 9.90667 246.02 9.768C245.817 9.61867 245.502 9.51733 245.076 9.464L244.052 9.336C242.953 9.19733 242.153 8.93067 241.652 8.536C241.15 8.14133 240.9 7.53867 240.9 6.728C240.9 5.87467 241.193 5.21333 241.78 4.744C242.366 4.27467 243.225 4.04 244.356 4.04H244.964C246.041 4.04 246.9 4.27467 247.54 4.744C248.18 5.21333 248.5 5.84267 248.5 6.632H246.1C246.1 6.41867 245.993 6.248 245.78 6.12C245.577 5.98133 245.305 5.912 244.964 5.912H244.356C243.961 5.912 243.673 5.98133 243.492 6.12C243.31 6.248 243.22 6.44533 243.22 6.712C243.22 6.95733 243.3 7.144 243.46 7.272C243.63 7.4 243.897 7.49067 244.26 7.544L245.364 7.688C246.473 7.82667 247.294 8.104 247.828 8.52C248.372 8.936 248.644 9.55467 248.644 10.376C248.644 11.272 248.334 11.96 247.716 12.44C247.097 12.92 246.185 13.16 244.98 13.16H244.276ZM254.286 13.16C253.507 13.16 252.824 13.016 252.238 12.728C251.651 12.4293 251.198 12.0187 250.878 11.496C250.558 10.9627 250.398 10.344 250.398 9.64V7.56C250.398 6.84533 250.558 6.22667 250.878 5.704C251.198 5.18133 251.651 4.776 252.238 4.488C252.824 4.18933 253.507 4.04 254.286 4.04C255.448 4.04 256.376 4.33333 257.07 4.92C257.763 5.50667 258.131 6.30667 258.174 7.32H255.774C255.742 6.94667 255.592 6.65333 255.326 6.44C255.07 6.22667 254.723 6.12 254.286 6.12C253.806 6.12 253.438 6.24267 253.182 6.488C252.926 6.73333 252.798 7.09067 252.798 7.56V9.64C252.798 10.0987 252.926 10.456 253.182 10.712C253.438 10.9573 253.806 11.08 254.286 11.08C254.723 11.08 255.07 10.9787 255.326 10.776C255.592 10.5627 255.742 10.264 255.774 9.88H258.174C258.131 10.8933 257.763 11.6933 257.07 12.28C256.376 12.8667 255.448 13.16 254.286 13.16ZM260.087 13V1.32H262.487V4.2L262.407 5.88H263.111L262.407 6.44C262.407 5.69333 262.621 5.10667 263.047 4.68C263.474 4.25333 264.05 4.04 264.775 4.04C265.629 4.04 266.311 4.33867 266.823 4.936C267.346 5.53333 267.607 6.328 267.607 7.32V13H265.207V7.56C265.207 7.10133 265.085 6.74933 264.839 6.504C264.605 6.248 264.269 6.12 263.831 6.12C263.405 6.12 263.074 6.248 262.839 6.504C262.605 6.74933 262.487 7.10133 262.487 7.56V13H260.087ZM271.521 9.4L271.441 5.96H273.041C273.478 5.96 273.825 5.85333 274.081 5.64C274.337 5.416 274.465 5.12267 274.465 4.76C274.465 4.38667 274.332 4.09333 274.065 3.88C273.809 3.66667 273.462 3.56 273.025 3.56H270.385V1.32H272.865C273.686 1.32 274.396 1.464 274.993 1.752C275.59 2.02933 276.049 2.424 276.369 2.936C276.7 3.448 276.865 4.056 276.865 4.76C276.865 5.432 276.726 6.01867 276.449 6.52C276.172 7.02133 275.782 7.416 275.281 7.704C274.78 7.98133 274.193 8.12 273.521 8.12V9.4H271.521ZM272.289 13.08C271.926 13.08 271.633 12.9787 271.409 12.776C271.196 12.5627 271.089 12.2907 271.089 11.96C271.089 11.6187 271.196 11.3467 271.409 11.144C271.633 10.9413 271.926 10.84 272.289 10.84H272.769C273.132 10.84 273.42 10.9413 273.633 11.144C273.857 11.3467 273.969 11.6187 273.969 11.96C273.969 12.3013 273.857 12.5733 273.633 12.776C273.42 12.9787 273.126 13.08 272.753 13.08H272.289Z" fill="#555EFF"/>
</svg>
