<svg width="276" height="16" viewBox="0 0 276 16" fill="none" xmlns="http://www.w3.org/2000/svg">
  <path d="M0.056 13V1.32H2.456V5.8H5.144V1.32H7.544V13H5.144V8.04H2.456V13H0.056ZM12.2578 13.16C11.3724 13.16 10.6684 12.92 10.1458 12.44C9.63375 11.96 9.37775 11.3093 9.37775 10.488C9.37775 9.60267 9.68175 8.92533 10.2898 8.456C10.9084 7.976 11.7938 7.736 12.9458 7.736H14.7698V7.08C14.7698 6.73867 14.6471 6.46667 14.4018 6.264C14.1671 6.06133 13.8471 5.96 13.4418 5.96C13.0684 5.96 12.7591 6.04533 12.5138 6.216C12.2684 6.38667 12.1191 6.62133 12.0658 6.92H9.74575C9.84175 6.03467 10.2258 5.336 10.8978 4.824C11.5804 4.30133 12.4551 4.04 13.5218 4.04C14.6418 4.04 15.5271 4.31733 16.1778 4.872C16.8391 5.416 17.1698 6.152 17.1698 7.08V13H14.8498V11.56H14.4658L14.8658 11C14.8658 11.6613 14.6258 12.1893 14.1458 12.584C13.6764 12.968 13.0471 13.16 12.2578 13.16ZM13.1538 11.4C13.6231 11.4 14.0071 11.2773 14.3058 11.032C14.6151 10.776 14.7698 10.4453 14.7698 10.04V9.096H12.9938C12.6311 9.096 12.3378 9.20267 12.1138 9.416C11.8898 9.61867 11.7778 9.89067 11.7778 10.232C11.7778 10.5947 11.9004 10.8827 12.1458 11.096C12.3911 11.2987 12.7271 11.4 13.1538 11.4ZM23.8995 13.16C23.1742 13.16 22.6035 12.952 22.1875 12.536C21.7715 12.1093 21.5635 11.5173 21.5635 10.76L22.1235 11.32H21.5635V13H19.2435V1.32H21.6435V3.72L21.5635 5.88H22.1235L21.5635 6.44C21.5635 5.68267 21.7715 5.096 22.1875 4.68C22.6035 4.25333 23.1742 4.04 23.8995 4.04C24.7848 4.04 25.4942 4.35467 26.0275 4.984C26.5608 5.60267 26.8275 6.43467 26.8275 7.48V9.72C26.8275 10.776 26.5608 11.6133 26.0275 12.232C25.4942 12.8507 24.7848 13.16 23.8995 13.16ZM23.0355 11.08C23.4835 11.08 23.8248 10.9573 24.0595 10.712C24.3048 10.456 24.4275 10.0987 24.4275 9.64V7.56C24.4275 7.10133 24.3048 6.74933 24.0595 6.504C23.8248 6.248 23.4835 6.12 23.0355 6.12C22.5982 6.12 22.2568 6.248 22.0115 6.504C21.7662 6.74933 21.6435 7.10133 21.6435 7.56V9.64C21.6435 10.0987 21.7662 10.456 22.0115 10.712C22.2568 10.9573 22.5982 11.08 23.0355 11.08ZM32.5973 13.16C31.8186 13.16 31.1359 13.016 30.5493 12.728C29.9733 12.4293 29.5253 12.0187 29.2053 11.496C28.8959 10.9627 28.7413 10.344 28.7413 9.64V7.56C28.7413 6.856 28.8959 6.24267 29.2053 5.72C29.5253 5.18667 29.9733 4.776 30.5493 4.488C31.1359 4.18933 31.8186 4.04 32.5973 4.04C33.3759 4.04 34.0479 4.18933 34.6133 4.488C35.1893 4.776 35.6319 5.18667 35.9413 5.72C36.2613 6.24267 36.4213 6.856 36.4213 7.56V9.16H31.0293V9.64C31.0293 10.1947 31.1626 10.616 31.4293 10.904C31.6959 11.1813 32.0959 11.32 32.6293 11.32C33.0026 11.32 33.3013 11.256 33.5253 11.128C33.7599 11 33.9146 10.824 33.9893 10.6H36.3413C36.1493 11.368 35.7119 11.9867 35.0293 12.456C34.3573 12.9253 33.5466 13.16 32.5973 13.16ZM34.1333 7.928V7.528C34.1333 6.984 34.0053 6.568 33.7493 6.28C33.5039 5.992 33.1199 5.848 32.5973 5.848C32.0746 5.848 31.6799 5.99733 31.4133 6.296C31.1573 6.59467 31.0293 7.016 31.0293 7.56V7.8L34.2933 7.768L34.1333 7.928ZM48.0888 13V10.824H51.1288V6.36H48.4888V4.2H53.3688V10.824H55.9288V13H48.0888ZM52.0888 2.808C51.6514 2.808 51.2994 2.696 51.0328 2.472C50.7768 2.248 50.6488 1.944 50.6488 1.56C50.6488 1.176 50.7768 0.871999 51.0328 0.648C51.2994 0.423999 51.6514 0.311999 52.0888 0.311999C52.5261 0.311999 52.8728 0.423999 53.1288 0.648C53.3954 0.871999 53.5288 1.176 53.5288 1.56C53.5288 1.944 53.3954 2.248 53.1288 2.472C52.8728 2.696 52.5261 2.808 52.0888 2.808ZM61.4105 13.16C60.6318 13.16 59.9492 13.016 59.3625 12.728C58.7758 12.4293 58.3225 12.0187 58.0025 11.496C57.6825 10.9627 57.5225 10.344 57.5225 9.64V7.56C57.5225 6.84533 57.6825 6.22667 58.0025 5.704C58.3225 5.18133 58.7758 4.776 59.3625 4.488C59.9492 4.18933 60.6318 4.04 61.4105 4.04C62.5732 4.04 63.5012 4.33333 64.1945 4.92C64.8878 5.50667 65.2558 6.30667 65.2985 7.32H62.8985C62.8665 6.94667 62.7172 6.65333 62.4505 6.44C62.1945 6.22667 61.8478 6.12 61.4105 6.12C60.9305 6.12 60.5625 6.24267 60.3065 6.488C60.0505 6.73333 59.9225 7.09067 59.9225 7.56V9.64C59.9225 10.0987 60.0505 10.456 60.3065 10.712C60.5625 10.9573 60.9305 11.08 61.4105 11.08C61.8478 11.08 62.1945 10.9787 62.4505 10.776C62.7172 10.5627 62.8665 10.264 62.8985 9.88H65.2985C65.2558 10.8933 64.8878 11.6933 64.1945 12.28C63.5012 12.8667 62.5732 13.16 61.4105 13.16ZM67.2122 13V1.32H69.6123V4.2L69.5323 5.88H70.2363L69.5323 6.44C69.5323 5.69333 69.7456 5.10667 70.1723 4.68C70.5989 4.25333 71.1749 4.04 71.9003 4.04C72.7536 4.04 73.4363 4.33867 73.9483 4.936C74.4709 5.53333 74.7323 6.328 74.7323 7.32V13H72.3323V7.56C72.3323 7.10133 72.2096 6.74933 71.9643 6.504C71.7296 6.248 71.3936 6.12 70.9563 6.12C70.5296 6.12 70.1989 6.248 69.9643 6.504C69.7296 6.74933 69.6123 7.10133 69.6123 7.56V13H67.2122ZM89.2318 13.16C88.3464 13.16 87.6371 12.8507 87.1038 12.232C86.5704 11.6133 86.3038 10.776 86.3038 9.72V7.48C86.3038 6.43467 86.5704 5.60267 87.1038 4.984C87.6371 4.35467 88.3464 4.04 89.2318 4.04C89.9571 4.04 90.5278 4.25333 90.9438 4.68C91.3598 5.096 91.5678 5.68267 91.5678 6.44L91.0078 5.88H91.5678L91.4878 3.72V1.32H93.8878V13H91.5678V11.32H91.0078L91.5678 10.76C91.5678 11.5173 91.3598 12.1093 90.9438 12.536C90.5278 12.952 89.9571 13.16 89.2318 13.16ZM90.0958 11.08C90.5331 11.08 90.8744 10.9573 91.1198 10.712C91.3651 10.456 91.4878 10.0987 91.4878 9.64V7.56C91.4878 7.10133 91.3651 6.74933 91.1198 6.504C90.8744 6.248 90.5331 6.12 90.0958 6.12C89.6478 6.12 89.3011 6.248 89.0558 6.504C88.8211 6.74933 88.7038 7.10133 88.7038 7.56V9.64C88.7038 10.0987 88.8211 10.456 89.0558 10.712C89.3011 10.9573 89.6478 11.08 90.0958 11.08ZM99.7535 13.16C98.9748 13.16 98.2922 13.016 97.7055 12.728C97.1295 12.4293 96.6815 12.0187 96.3615 11.496C96.0522 10.9627 95.8975 10.344 95.8975 9.64V7.56C95.8975 6.856 96.0522 6.24267 96.3615 5.72C96.6815 5.18667 97.1295 4.776 97.7055 4.488C98.2922 4.18933 98.9748 4.04 99.7535 4.04C100.532 4.04 101.204 4.18933 101.77 4.488C102.346 4.776 102.788 5.18667 103.098 5.72C103.418 6.24267 103.578 6.856 103.578 7.56V9.16H98.1855V9.64C98.1855 10.1947 98.3188 10.616 98.5855 10.904C98.8522 11.1813 99.2522 11.32 99.7855 11.32C100.159 11.32 100.458 11.256 100.682 11.128C100.916 11 101.071 10.824 101.146 10.6H103.498C103.306 11.368 102.868 11.9867 102.186 12.456C101.514 12.9253 100.703 13.16 99.7535 13.16ZM101.29 7.928V7.528C101.29 6.984 101.162 6.568 100.906 6.28C100.66 5.992 100.276 5.848 99.7535 5.848C99.2308 5.848 98.8362 5.99733 98.5695 6.296C98.3135 6.59467 98.1855 7.016 98.1855 7.56V7.8L101.45 7.768L101.29 7.928ZM105.587 13V4.2H107.907V5.88H108.611L107.907 6.44C107.907 5.69333 108.121 5.10667 108.547 4.68C108.974 4.25333 109.55 4.04 110.275 4.04C111.129 4.04 111.811 4.33867 112.323 4.936C112.846 5.53333 113.107 6.328 113.107 7.32V13H110.707V7.56C110.707 7.10133 110.585 6.74933 110.339 6.504C110.105 6.248 109.769 6.12 109.331 6.12C108.905 6.12 108.574 6.248 108.339 6.504C108.105 6.74933 107.987 7.10133 107.987 7.56V13H105.587ZM124.775 13V1.32H127.175V5.8H129.863V1.32H132.263V13H129.863V8.04H127.175V13H124.775ZM138.129 13.16C137.35 13.16 136.667 13.016 136.081 12.728C135.505 12.4293 135.057 12.0187 134.737 11.496C134.427 10.9627 134.273 10.344 134.273 9.64V7.56C134.273 6.856 134.427 6.24267 134.737 5.72C135.057 5.18667 135.505 4.776 136.081 4.488C136.667 4.18933 137.35 4.04 138.129 4.04C138.907 4.04 139.579 4.18933 140.145 4.488C140.721 4.776 141.163 5.18667 141.473 5.72C141.793 6.24267 141.953 6.856 141.953 7.56V9.16H136.561V9.64C136.561 10.1947 136.694 10.616 136.961 10.904C137.227 11.1813 137.627 11.32 138.161 11.32C138.534 11.32 138.833 11.256 139.057 11.128C139.291 11 139.446 10.824 139.521 10.6H141.873C141.681 11.368 141.243 11.9867 140.561 12.456C139.889 12.9253 139.078 13.16 138.129 13.16ZM139.665 7.928V7.528C139.665 6.984 139.537 6.568 139.281 6.28C139.035 5.992 138.651 5.848 138.129 5.848C137.606 5.848 137.211 5.99733 136.945 6.296C136.689 6.59467 136.561 7.016 136.561 7.56V7.8L139.825 7.768L139.665 7.928ZM144.218 13V4.2H146.458V5.88H147.066L146.378 6.904C146.378 5.95467 146.597 5.24 147.034 4.76C147.472 4.28 148.112 4.04 148.954 4.04C149.925 4.04 150.677 4.33333 151.21 4.92C151.754 5.50667 152.026 6.33333 152.026 7.4V8.12H149.466V7.56C149.466 7.08 149.333 6.70667 149.066 6.44C148.81 6.17333 148.464 6.04 148.026 6.04C147.568 6.04 147.216 6.17333 146.97 6.44C146.736 6.70667 146.618 7.08 146.618 7.56V13H144.218ZM156.388 13.16C155.503 13.16 154.793 12.8507 154.26 12.232C153.727 11.6133 153.46 10.776 153.46 9.72V7.48C153.46 6.43467 153.727 5.60267 154.26 4.984C154.793 4.35467 155.503 4.04 156.388 4.04C157.113 4.04 157.684 4.25333 158.1 4.68C158.516 5.096 158.724 5.68267 158.724 6.44L158.164 5.88H158.724L158.644 3.72V1.32H161.044V13H158.724V11.32H158.164L158.724 10.76C158.724 11.5173 158.516 12.1093 158.1 12.536C157.684 12.952 157.113 13.16 156.388 13.16ZM157.252 11.08C157.689 11.08 158.031 10.9573 158.276 10.712C158.521 10.456 158.644 10.0987 158.644 9.64V7.56C158.644 7.10133 158.521 6.74933 158.276 6.504C158.031 6.248 157.689 6.12 157.252 6.12C156.804 6.12 156.457 6.248 156.212 6.504C155.977 6.74933 155.86 7.10133 155.86 7.56V9.64C155.86 10.0987 155.977 10.456 156.212 10.712C156.457 10.9573 156.804 11.08 157.252 11.08ZM175.352 13.16C174.466 13.16 173.762 12.92 173.24 12.44C172.728 11.96 172.472 11.3093 172.472 10.488C172.472 9.60267 172.776 8.92533 173.384 8.456C174.002 7.976 174.888 7.736 176.04 7.736H177.864V7.08C177.864 6.73867 177.741 6.46667 177.496 6.264C177.261 6.06133 176.941 5.96 176.536 5.96C176.162 5.96 175.853 6.04533 175.608 6.216C175.362 6.38667 175.213 6.62133 175.16 6.92H172.84C172.936 6.03467 173.32 5.336 173.992 4.824C174.674 4.30133 175.549 4.04 176.616 4.04C177.736 4.04 178.621 4.31733 179.272 4.872C179.933 5.416 180.264 6.152 180.264 7.08V13H177.944V11.56H177.56L177.96 11C177.96 11.6613 177.72 12.1893 177.24 12.584C176.77 12.968 176.141 13.16 175.352 13.16ZM176.248 11.4C176.717 11.4 177.101 11.2773 177.4 11.032C177.709 10.776 177.864 10.4453 177.864 10.04V9.096H176.088C175.725 9.096 175.432 9.20267 175.208 9.416C174.984 9.61867 174.872 9.89067 174.872 10.232C174.872 10.5947 174.994 10.8827 175.24 11.096C175.485 11.2987 175.821 11.4 176.248 11.4ZM186.081 13.16C184.897 13.16 183.969 12.84 183.297 12.2C182.636 11.56 182.305 10.6853 182.305 9.576V4.2H184.705V9.56C184.705 10.0507 184.823 10.4293 185.057 10.696C185.292 10.952 185.633 11.08 186.081 11.08C186.519 11.08 186.855 10.952 187.089 10.696C187.335 10.4293 187.457 10.0507 187.457 9.56V4.2H189.857V9.576C189.857 10.696 189.521 11.576 188.849 12.216C188.177 12.8453 187.255 13.16 186.081 13.16ZM195.307 13.16C194.582 13.16 193.947 13.048 193.403 12.824C192.859 12.5893 192.432 12.2693 192.123 11.864C191.824 11.4587 191.675 10.984 191.675 10.44H194.075C194.075 10.696 194.187 10.904 194.411 11.064C194.646 11.2133 194.944 11.288 195.307 11.288H196.011C196.448 11.288 196.779 11.208 197.003 11.048C197.238 10.888 197.355 10.664 197.355 10.376C197.355 10.1093 197.254 9.90667 197.051 9.768C196.848 9.61867 196.534 9.51733 196.107 9.464L195.083 9.336C193.984 9.19733 193.184 8.93067 192.683 8.536C192.182 8.14133 191.931 7.53867 191.931 6.728C191.931 5.87467 192.224 5.21333 192.811 4.744C193.398 4.27467 194.256 4.04 195.387 4.04H195.995C197.072 4.04 197.931 4.27467 198.571 4.744C199.211 5.21333 199.531 5.84267 199.531 6.632H197.131C197.131 6.41867 197.024 6.248 196.811 6.12C196.608 5.98133 196.336 5.912 195.995 5.912H195.387C194.992 5.912 194.704 5.98133 194.523 6.12C194.342 6.248 194.251 6.44533 194.251 6.712C194.251 6.95733 194.331 7.144 194.491 7.272C194.662 7.4 194.928 7.49067 195.291 7.544L196.395 7.688C197.504 7.82667 198.326 8.104 198.859 8.52C199.403 8.936 199.675 9.55467 199.675 10.376C199.675 11.272 199.366 11.96 198.747 12.44C198.128 12.92 197.216 13.16 196.011 13.16H195.307ZM202.789 15.88V13.96H205.269C205.717 13.96 206.058 13.848 206.293 13.624C206.538 13.4 206.661 13.0907 206.661 12.696V12.36L206.693 10.68H206.133L206.693 10.12C206.693 10.8773 206.485 11.4693 206.069 11.896C205.653 12.312 205.082 12.52 204.357 12.52C203.471 12.52 202.762 12.2107 202.229 11.592C201.695 10.9733 201.429 10.136 201.429 9.08V7.48C201.429 6.43467 201.695 5.60267 202.229 4.984C202.762 4.35467 203.471 4.04 204.357 4.04C205.082 4.04 205.653 4.25333 206.069 4.68C206.485 5.096 206.693 5.68267 206.693 6.44L206.133 5.88H206.693L206.613 4.2H209.013V12.776C209.013 13.736 208.682 14.4933 208.021 15.048C207.37 15.6027 206.479 15.88 205.349 15.88H202.789ZM205.221 10.44C205.658 10.44 205.999 10.3173 206.245 10.072C206.49 9.816 206.613 9.45867 206.613 9V7.56C206.613 7.10133 206.49 6.74933 206.245 6.504C205.999 6.248 205.658 6.12 205.221 6.12C204.773 6.12 204.426 6.248 204.181 6.504C203.946 6.74933 203.829 7.10133 203.829 7.56V9C203.829 9.45867 203.946 9.816 204.181 10.072C204.426 10.3173 204.773 10.44 205.221 10.44ZM214.879 13.16C214.1 13.16 213.417 13.016 212.831 12.728C212.255 12.4293 211.807 12.0187 211.487 11.496C211.177 10.9627 211.023 10.344 211.023 9.64V7.56C211.023 6.856 211.177 6.24267 211.487 5.72C211.807 5.18667 212.255 4.776 212.831 4.488C213.417 4.18933 214.1 4.04 214.879 4.04C215.657 4.04 216.329 4.18933 216.895 4.488C217.471 4.776 217.913 5.18667 218.223 5.72C218.543 6.24267 218.703 6.856 218.703 7.56V9.16H213.311V9.64C213.311 10.1947 213.444 10.616 213.711 10.904C213.977 11.1813 214.377 11.32 214.911 11.32C215.284 11.32 215.583 11.256 215.807 11.128C216.041 11 216.196 10.824 216.271 10.6H218.623C218.431 11.368 217.993 11.9867 217.311 12.456C216.639 12.9253 215.828 13.16 214.879 13.16ZM216.415 7.928V7.528C216.415 6.984 216.287 6.568 216.031 6.28C215.785 5.992 215.401 5.848 214.879 5.848C214.356 5.848 213.961 5.99733 213.695 6.296C213.439 6.59467 213.311 7.016 213.311 7.56V7.8L216.575 7.768L216.415 7.928ZM220.328 13V4.2H222.216V5.48H222.6L222.296 5.704C222.296 5.20267 222.44 4.80267 222.728 4.504C223.016 4.19467 223.374 4.04 223.8 4.04C224.259 4.04 224.616 4.23733 224.872 4.632C225.128 5.02667 225.256 5.54933 225.256 6.2L224.968 5.48H225.416L225.272 5.704C225.272 5.20267 225.411 4.80267 225.688 4.504C225.966 4.19467 226.339 4.04 226.808 4.04C227.342 4.04 227.774 4.24267 228.104 4.648C228.435 5.04267 228.6 5.58667 228.6 6.28V13H226.536V6.44C226.536 6.19467 226.483 6.008 226.376 5.88C226.27 5.74133 226.115 5.672 225.912 5.672C225.71 5.672 225.555 5.74133 225.448 5.88C225.342 6.008 225.288 6.19467 225.288 6.44V13H223.64V6.44C223.64 6.19467 223.587 6.008 223.48 5.88C223.374 5.74133 223.219 5.672 223.016 5.672C222.814 5.672 222.659 5.74133 222.552 5.88C222.446 6.008 222.392 6.19467 222.392 6.44V13H220.328ZM232.914 13.16C232.029 13.16 231.325 12.92 230.802 12.44C230.29 11.96 230.034 11.3093 230.034 10.488C230.034 9.60267 230.338 8.92533 230.946 8.456C231.565 7.976 232.45 7.736 233.602 7.736H235.426V7.08C235.426 6.73867 235.303 6.46667 235.058 6.264C234.823 6.06133 234.503 5.96 234.098 5.96C233.725 5.96 233.415 6.04533 233.17 6.216C232.925 6.38667 232.775 6.62133 232.722 6.92H230.402C230.498 6.03467 230.882 5.336 231.554 4.824C232.237 4.30133 233.111 4.04 234.178 4.04C235.298 4.04 236.183 4.31733 236.834 4.872C237.495 5.416 237.826 6.152 237.826 7.08V13H235.506V11.56H235.122L235.522 11C235.522 11.6613 235.282 12.1893 234.802 12.584C234.333 12.968 233.703 13.16 232.914 13.16ZM233.81 11.4C234.279 11.4 234.663 11.2773 234.962 11.032C235.271 10.776 235.426 10.4453 235.426 10.04V9.096H233.65C233.287 9.096 232.994 9.20267 232.77 9.416C232.546 9.61867 232.434 9.89067 232.434 10.232C232.434 10.5947 232.557 10.8827 232.802 11.096C233.047 11.2987 233.383 11.4 233.81 11.4ZM243.692 13.16C242.913 13.16 242.23 13.016 241.644 12.728C241.057 12.4293 240.604 12.0187 240.284 11.496C239.964 10.9627 239.804 10.344 239.804 9.64V7.56C239.804 6.84533 239.964 6.22667 240.284 5.704C240.604 5.18133 241.057 4.776 241.644 4.488C242.23 4.18933 242.913 4.04 243.692 4.04C244.854 4.04 245.782 4.33333 246.476 4.92C247.169 5.50667 247.537 6.30667 247.58 7.32H245.18C245.148 6.94667 244.998 6.65333 244.732 6.44C244.476 6.22667 244.129 6.12 243.692 6.12C243.212 6.12 242.844 6.24267 242.588 6.488C242.332 6.73333 242.204 7.09067 242.204 7.56V9.64C242.204 10.0987 242.332 10.456 242.588 10.712C242.844 10.9573 243.212 11.08 243.692 11.08C244.129 11.08 244.476 10.9787 244.732 10.776C244.998 10.5627 245.148 10.264 245.18 9.88H247.58C247.537 10.8933 247.169 11.6933 246.476 12.28C245.782 12.8667 244.854 13.16 243.692 13.16ZM249.493 13V1.32H251.894V4.2L251.814 5.88H252.518L251.814 6.44C251.814 5.69333 252.027 5.10667 252.454 4.68C252.88 4.25333 253.456 4.04 254.182 4.04C255.035 4.04 255.718 4.33867 256.23 4.936C256.752 5.53333 257.014 6.328 257.014 7.32V13H254.614V7.56C254.614 7.10133 254.491 6.74933 254.246 6.504C254.011 6.248 253.675 6.12 253.238 6.12C252.811 6.12 252.48 6.248 252.246 6.504C252.011 6.74933 251.894 7.10133 251.894 7.56V13H249.493ZM263.791 13C262.895 13 262.191 12.744 261.679 12.232C261.167 11.72 260.911 11.016 260.911 10.12V6.36H258.591V4.2H260.911V1.72H263.311V4.2H266.591V6.36H263.311V10.12C263.311 10.6 263.551 10.84 264.031 10.84H266.431V13H263.791ZM270.521 9.4L270.441 5.96H272.041C272.478 5.96 272.825 5.85333 273.081 5.64C273.337 5.416 273.465 5.12267 273.465 4.76C273.465 4.38667 273.332 4.09333 273.065 3.88C272.809 3.66667 272.462 3.56 272.025 3.56H269.385V1.32H271.865C272.686 1.32 273.396 1.464 273.993 1.752C274.59 2.02933 275.049 2.424 275.369 2.936C275.7 3.448 275.865 4.056 275.865 4.76C275.865 5.432 275.726 6.01867 275.449 6.52C275.172 7.02133 274.782 7.416 274.281 7.704C273.78 7.98133 273.193 8.12 272.521 8.12V9.4H270.521ZM271.289 13.08C270.926 13.08 270.633 12.9787 270.409 12.776C270.196 12.5627 270.089 12.2907 270.089 11.96C270.089 11.6187 270.196 11.3467 270.409 11.144C270.633 10.9413 270.926 10.84 271.289 10.84H271.769C272.132 10.84 272.42 10.9413 272.633 11.144C272.857 11.3467 272.969 11.6187 272.969 11.96C272.969 12.3013 272.857 12.5733 272.633 12.776C272.42 12.9787 272.126 13.08 271.753 13.08H271.289Z" fill="#CA0000"/>
</svg>
