<svg width="41" height="37" viewBox="0 0 41 37" fill="none" xmlns="http://www.w3.org/2000/svg">
  <path d="M10.4131 15.3321C10.2359 15.1687 10.0323 15.0373 9.81132 14.9437C9.47921 14.802 9.11318 14.7633 8.75941 14.8325C8.40563 14.9016 8.07998 15.0754 7.82353 15.3321C7.6575 15.5079 7.52735 15.7154 7.44056 15.9424C7.3009 16.2792 7.26274 16.6504 7.3309 17.0092C7.39906 17.368 7.57048 17.6982 7.82353 17.9583C8.00079 18.1217 8.20433 18.253 8.42533 18.3467C8.75675 18.4812 9.1198 18.5141 9.46949 18.4414C9.81919 18.3687 10.1401 18.1934 10.3926 17.9374C10.645 17.6814 10.8178 17.3559 10.8895 17.0013C10.9612 16.6467 10.9288 16.2785 10.7961 15.9424C10.7093 15.7154 10.5792 15.5079 10.4131 15.3321ZM15.1182 10.5604C15.2886 10.7318 15.4907 10.8675 15.7129 10.9595C15.9351 11.0515 16.173 11.0982 16.413 11.0968C16.6522 11.103 16.8896 11.0524 17.106 10.9488C17.327 10.8552 17.5305 10.7238 17.7078 10.5604C17.8689 10.3807 17.9984 10.1742 18.0908 9.95012C18.1872 9.72873 18.2371 9.48936 18.2371 9.24732C18.2371 9.00528 18.1872 8.7659 18.0908 8.54452C17.9984 8.3204 17.8689 8.11397 17.7078 7.9342C17.5383 7.76085 17.3366 7.62326 17.1143 7.52937C16.8921 7.43547 16.6537 7.38713 16.413 7.38713C16.1722 7.38713 15.9339 7.43547 15.7117 7.52937C15.4894 7.62326 15.2877 7.76085 15.1182 7.9342C14.9571 8.11397 14.8276 8.3204 14.7352 8.54452C14.6387 8.7659 14.5889 9.00528 14.5889 9.24732C14.5889 9.48936 14.6387 9.72873 14.7352 9.95012C14.8276 10.1742 14.9571 10.3807 15.1182 10.5604ZM10.4131 7.9342C10.1581 7.67337 9.83216 7.49549 9.47701 7.42323C9.12185 7.35097 8.75353 7.38761 8.41899 7.52848C8.08445 7.66935 7.79885 7.90806 7.59861 8.21418C7.39837 8.52031 7.29256 8.87997 7.29466 9.24732C7.29754 9.489 7.34711 9.72777 7.44056 9.95012C7.53291 10.1742 7.66244 10.3807 7.82353 10.5604C7.99393 10.7318 8.19602 10.8675 8.41821 10.9595C8.6404 11.0515 8.87832 11.0982 9.11833 11.0968C9.35755 11.103 9.59489 11.0524 9.81132 10.9488C10.0323 10.8552 10.2359 10.7238 10.4131 10.5604C10.5742 10.3807 10.7037 10.1742 10.7961 9.95012C10.8926 9.72873 10.9424 9.48936 10.9424 9.24732C10.9424 9.00528 10.8926 8.7659 10.7961 8.54452C10.7037 8.3204 10.5742 8.11397 10.4131 7.9342ZM22.4129 30.1278L20.0603 32.5321L17.7078 30.1278C17.5378 29.9553 17.3359 29.8185 17.1137 29.7252C16.8916 29.6319 16.6535 29.5839 16.413 29.5839C16.1725 29.5839 15.9344 29.6319 15.7122 29.7252C15.4901 29.8185 15.2882 29.9553 15.1182 30.1278C14.9482 30.3002 14.8133 30.5049 14.7212 30.7302C14.6292 30.9555 14.5819 31.197 14.5819 31.4409C14.5819 31.6848 14.6292 31.9262 14.7212 32.1515C14.8133 32.3768 14.9482 32.5816 15.1182 32.754L18.7655 36.4529C18.9351 36.6263 19.1368 36.7639 19.359 36.8578C19.5812 36.9517 19.8196 37 20.0603 37C20.3011 37 20.5394 36.9517 20.7617 36.8578C20.9839 36.7639 21.1856 36.6263 21.3551 36.4529L25.0025 32.754C25.3459 32.4057 25.5388 31.9334 25.5388 31.4409C25.5388 30.9484 25.3459 30.476 25.0025 30.1278C24.6591 29.7795 24.1933 29.5839 23.7077 29.5839C23.222 29.5839 22.7563 29.7795 22.4129 30.1278ZM32.2971 7.9342C32.042 7.67337 31.7161 7.49549 31.361 7.42323C31.0058 7.35097 30.6375 7.38761 30.303 7.52848C29.9684 7.66935 29.6828 7.90806 29.4826 8.21418C29.2824 8.52031 29.1765 8.87997 29.1786 9.24732C29.1725 9.48993 29.2225 9.73062 29.3245 9.95012C29.4169 10.1742 29.5464 10.3807 29.7075 10.5604C29.877 10.7338 30.0787 10.8714 30.301 10.9653C30.5232 11.0592 30.7616 11.1075 31.0023 11.1075C31.2431 11.1075 31.4814 11.0592 31.7037 10.9653C31.9259 10.8714 32.1276 10.7338 32.2971 10.5604C32.4582 10.3807 32.5877 10.1742 32.6801 9.95012C32.7822 9.73062 32.8321 9.48993 32.826 9.24732C32.8231 9.00564 32.7735 8.76687 32.6801 8.54452C32.5877 8.3204 32.4582 8.11397 32.2971 7.9342ZM23.7077 14.7957H16.413C15.9293 14.7957 15.4655 14.9906 15.1235 15.3374C14.7815 15.6842 14.5893 16.1547 14.5893 16.6452C14.5893 17.1357 14.7815 17.6061 15.1235 17.9529C15.4655 18.2998 15.9293 18.4946 16.413 18.4946H23.7077C24.1913 18.4946 24.6552 18.2998 24.9972 17.9529C25.3392 17.6061 25.5313 17.1357 25.5313 16.6452C25.5313 16.1547 25.3392 15.6842 24.9972 15.3374C24.6552 14.9906 24.1913 14.7957 23.7077 14.7957ZM34.6496 0H5.471C4.02 0 2.62843 0.584561 1.60242 1.62509C0.576407 2.66561 0 4.07687 0 5.54839V20.3441C0 21.8156 0.576407 23.2269 1.60242 24.2674C2.62843 25.3079 4.02 25.8925 5.471 25.8925H34.6496C36.1006 25.8925 37.4922 25.3079 38.5182 24.2674C39.5442 23.2269 40.1206 21.8156 40.1206 20.3441V5.54839C40.1206 4.07687 39.5442 2.66561 38.5182 1.62509C37.4922 0.584561 36.1006 0 34.6496 0ZM36.4733 20.3441C36.4733 20.8346 36.2812 21.305 35.9392 21.6519C35.5972 21.9987 35.1333 22.1936 34.6496 22.1936H5.471C4.98733 22.1936 4.52347 21.9987 4.18147 21.6519C3.83947 21.305 3.64733 20.8346 3.64733 20.3441V5.54839C3.64733 5.05788 3.83947 4.58747 4.18147 4.24062C4.52347 3.89378 4.98733 3.69893 5.471 3.69893H34.6496C35.1333 3.69893 35.5972 3.89378 35.9392 4.24062C36.2812 4.58747 36.4733 5.05788 36.4733 5.54839V20.3441ZM32.2971 15.3321C32.1237 15.1637 31.9192 15.0317 31.6953 14.9437C31.4776 14.8435 31.2413 14.7917 31.0023 14.7917C30.7633 14.7917 30.527 14.8435 30.3093 14.9437C30.0883 15.0373 29.8848 15.1687 29.7075 15.3321C29.3743 15.6865 29.1854 16.1555 29.1786 16.6452C29.1755 16.9203 29.2328 17.1927 29.3466 17.4425C29.4604 17.6923 29.6277 17.9132 29.8363 18.0891C30.045 18.265 30.2897 18.3915 30.5526 18.4593C30.8155 18.5271 31.0901 18.5346 31.3563 18.4812C31.6224 18.4278 31.8735 18.3148 32.0911 18.1505C32.3087 17.9862 32.4875 17.7747 32.6143 17.5315C32.7412 17.2883 32.8129 17.0194 32.8243 16.7445C32.8356 16.4696 32.7864 16.1955 32.6801 15.9424C32.5933 15.7154 32.4631 15.5079 32.2971 15.3321ZM23.0147 7.54581C22.7937 7.63947 22.5901 7.77083 22.4129 7.9342C22.0796 8.28862 21.8907 8.75764 21.884 9.24732C21.8869 9.489 21.9364 9.72777 22.0299 9.95012C22.1222 10.1742 22.2518 10.3807 22.4129 10.5604C22.5833 10.7318 22.7853 10.8675 23.0075 10.9595C23.2297 11.0515 23.4676 11.0982 23.7077 11.0968C23.9469 11.103 24.1842 11.0524 24.4006 10.9488C24.6216 10.8552 24.8252 10.7238 25.0025 10.5604C25.1635 10.3807 25.2931 10.1742 25.3854 9.95012C25.4875 9.73062 25.5375 9.48993 25.5313 9.24732C25.5246 8.75764 25.3357 8.28862 25.0025 7.9342C24.746 7.67757 24.4203 7.50373 24.0666 7.43461C23.7128 7.36549 23.3468 7.40418 23.0147 7.54581Z" fill="black"/>
</svg>
