<svg width="33" height="42" viewBox="0 0 33 42" fill="none" xmlns="http://www.w3.org/2000/svg">
  <path d="M16.5 12.6001C17.125 12.6005 17.7243 12.8218 18.1663 13.2156C18.6082 13.6093 18.8567 14.1433 18.8571 14.7001C18.8571 15.2571 19.1055 15.7912 19.5475 16.185C19.9896 16.5789 20.5891 16.8001 21.2143 16.8001C21.8394 16.8001 22.439 16.5789 22.881 16.185C23.3231 15.7912 23.5714 15.2571 23.5714 14.7001C23.5708 13.6517 23.2765 12.6201 22.7151 11.6987C22.1538 10.7773 21.3432 9.99529 20.3569 9.42358C19.3705 8.85186 18.2396 8.50852 17.0666 8.42467C15.8937 8.34083 14.7158 8.51913 13.6397 8.94343C12.5637 9.36772 11.6235 10.0246 10.9045 10.8544C10.1854 11.6843 9.71023 12.661 9.52198 13.6958C9.33374 14.7307 9.43839 15.791 9.82645 16.7808C10.2145 17.7705 10.8737 18.6583 11.7443 19.3636C11.7678 19.3827 12.1241 19.7204 12.2001 19.8148C12.4669 20.1605 12.6098 20.5703 12.6098 20.9899C12.6098 21.4095 12.4669 21.8193 12.2001 22.165C12.025 22.3923 11.902 22.6481 11.8379 22.9178C11.7738 23.1874 11.77 23.4657 11.8267 23.7367C11.8833 24.0077 11.9993 24.2661 12.168 24.4971C12.3368 24.7282 12.5549 24.9274 12.8101 25.0833C13.0652 25.2392 13.3523 25.3489 13.655 25.4059C13.9577 25.463 14.27 25.4664 14.5742 25.416C14.8784 25.3655 15.1684 25.2621 15.4277 25.1118C15.6871 24.9615 15.9106 24.7671 16.0857 24.5398C16.8942 23.4926 17.3261 22.2511 17.3241 20.9801C17.322 19.7091 16.8861 18.4687 16.0742 17.4236C15.7113 17.0162 15.3248 16.6261 14.9163 16.2546C14.776 16.1405 14.6509 16.0126 14.5434 15.8732C14.3051 15.557 14.1677 15.1891 14.1459 14.8087C14.1241 14.4284 14.2188 14.0499 14.4197 13.7137C14.6207 13.3776 14.9203 13.0964 15.2868 12.9003C15.6532 12.7041 16.0725 12.6004 16.5 12.6001ZM16.5 0C13.9692 0.00019318 11.4724 0.519 9.2026 1.5163C6.93284 2.51359 4.95096 3.96265 3.41025 5.7514C1.86954 7.54016 0.811294 9.62067 0.317347 11.832C-0.1766 14.0434 -0.0930067 16.3263 0.561661 18.5043C0.725349 19.0403 1.12076 19.4967 1.66133 19.7735C2.20189 20.0504 2.84355 20.1251 3.44581 19.9813C4.04808 19.8376 4.56186 19.4871 4.87467 19.0065C5.18749 18.526 5.27383 17.9546 5.11481 17.4175C4.68073 15.9738 4.5976 14.4641 4.87098 12.9895C5.14436 11.5148 5.76795 10.1091 6.70006 8.86643C7.63217 7.62373 8.85132 6.57262 10.276 5.78339C11.7007 4.99416 13.2981 4.48499 14.9614 4.28993C16.6246 4.09486 18.3155 4.21839 19.9209 4.65226C21.5263 5.08613 23.0093 5.82034 24.2706 6.80581C25.5319 7.79128 26.5426 9.00529 27.235 10.3667C27.9274 11.7281 28.2856 13.2055 28.2857 14.7001C28.2757 16.5965 27.7023 18.4567 26.6237 20.0916L18.2241 35.7003C17.8096 36.3379 17.2146 36.8674 16.4984 37.236C15.7822 37.6045 14.9699 37.7991 14.1429 37.8003C12.8977 37.7856 11.7081 37.3384 10.8276 36.5539C9.94702 35.7694 9.44505 34.7096 9.42857 33.6002C9.42855 32.8635 9.64692 32.1398 10.0616 31.5023C10.3748 31.0199 10.46 30.4464 10.2986 29.9079C10.1372 29.3695 9.74224 28.9102 9.20073 28.6312C8.65922 28.3521 8.01546 28.2762 7.41109 28.42C6.80671 28.5638 6.29122 28.9157 5.97802 29.3981C5.35427 30.3589 4.95051 31.4204 4.79007 32.5211C4.62964 33.6217 4.71572 34.7399 5.04333 35.8107C5.37094 36.8816 5.93359 37.884 6.69874 38.7599C7.46389 39.6359 8.41636 40.368 9.50107 40.9139C10.5858 41.4599 11.7812 41.8088 13.0182 41.9406C14.2553 42.0724 15.5093 41.9844 16.708 41.6817C17.9066 41.379 19.0259 40.8676 20.0013 40.177C20.9767 39.4865 21.7888 38.6306 22.3905 37.6587L30.7902 22.0502C32.2381 19.8154 33.0002 17.2804 33 14.7001C32.9998 12.1197 32.2373 9.58485 30.7891 7.35022C29.3409 5.1156 27.258 3.25993 24.7498 1.96971C22.2415 0.679489 19.3963 0.000162137 16.5 0Z" fill="black"/>
</svg>
