<svg width="37" height="46" viewBox="0 0 37 46" fill="none" xmlns="http://www.w3.org/2000/svg">
  <path d="M21.5265 0C17.6553 0 13.2608 0.698625 9.68222 2.8405C6.09799 4.98525 3.39716 8.77163 3.39716 14.2284C3.39716 17.1436 3.15521 18.0147 2.67131 18.9721C2.18741 19.9324 1.24212 21.1629 0.105523 23.9459C0.0178825 24.1639 -0.0159611 24.4006 0.00697215 24.6351C0.0299054 24.8696 0.108912 25.0947 0.237035 25.2907C0.365158 25.4867 0.538467 25.6474 0.7417 25.7589C0.944933 25.8703 1.17186 25.9289 1.40248 25.9296H4.2693L4.26368 27.0595C4.26358 27.0691 4.26358 27.0787 4.26368 27.0882V31.7544C4.26368 33.1056 4.08362 34.454 4.99797 35.7363C5.45654 36.3745 6.17677 36.8259 6.97576 37.0674C7.77757 37.3089 8.69473 37.3923 9.85665 37.3923H13.0864V44.5625C13.0864 44.9437 13.2346 45.3094 13.4984 45.579C13.7622 45.8485 14.12 46 14.4931 46H30.0791C30.4522 46 30.81 45.8485 31.0738 45.579C31.3376 45.3094 31.4858 44.9437 31.4858 44.5625V34.5057C31.4858 29.7419 32.6955 27.508 34.0544 25.0901C35.357 22.7758 36.7834 20.1365 36.9128 15.9591C36.9707 15.799 37.0002 15.6296 37 15.4589C37 6.25313 29.6205 0.00575 21.5265 0.00575V0ZM21.5265 2.8635V2.875C28.2364 2.875 34.1866 7.797 34.1866 15.4531C34.1866 19.3487 33.0106 21.1744 31.6152 23.6526C30.2198 26.1309 28.6696 29.2014 28.6696 34.5V43.1193H15.8998V35.949C15.8998 35.5677 15.7516 35.2021 15.4877 34.9325C15.2239 34.663 14.8661 34.5115 14.4931 34.5115H9.85665C8.84946 34.5115 8.16019 34.4224 7.76913 34.3045C7.37526 34.1866 7.31899 34.1004 7.27398 34.0343C7.17832 33.902 7.07704 33.1488 7.07704 31.7486V27.0653C7.0883 25.9009 7.09392 25.2597 7.08548 24.863C7.08548 24.6646 7.08548 24.5467 7.04891 24.3139C7.0264 24.196 7.0264 24.035 6.83509 23.7245C6.53192 23.3481 6.09883 23.1052 5.62535 23.046H3.73476C4.22148 22.1576 4.78134 21.0536 5.17521 20.2774C5.85042 18.9376 6.21334 17.3305 6.21334 14.2169C6.21334 9.67438 8.17426 7.06388 11.103 5.313C14.0317 3.55925 17.9985 2.8635 21.5265 2.8635ZM21.0989 5.74425V5.75C18.5893 5.72125 15.4721 6.072 12.912 7.31687C11.6319 7.93787 10.4643 8.81187 9.70754 10.074C8.95356 11.339 8.69754 12.9663 9.09141 14.7028C9.49935 16.4853 10.7485 17.7388 12.0933 18.0521C13.4381 18.3684 14.6984 18.0895 15.9194 17.9026C17.1348 17.7157 18.2996 17.5778 19.2533 17.7502C20.207 17.9228 20.9666 18.3022 21.7572 19.4781C22.6012 20.7345 23.5859 21.6143 24.6972 22.057C25.2355 22.2727 25.8114 22.373 26.3893 22.3517C26.9671 22.3304 27.5346 22.1881 28.0563 21.9334C30.0763 20.9271 31.2354 18.5524 31.4408 15.6544C31.6518 12.65 30.352 10.0682 28.3742 8.372C26.3936 6.67575 23.7716 5.76438 21.0989 5.74425ZM21.0763 8.625C23.1301 8.65375 25.1614 9.3725 26.5652 10.58C27.9719 11.7846 28.7793 13.3687 28.6331 15.4531C28.4783 17.6467 27.5358 18.9951 26.8184 19.3545C26.6504 19.4465 26.4637 19.497 26.2732 19.502C26.0826 19.507 25.8936 19.4663 25.7212 19.3833C25.2795 19.2108 24.6915 18.7623 24.0782 17.8509C22.9022 16.1058 21.293 15.2059 19.7456 14.9241C18.1983 14.6424 16.741 14.8753 15.4974 15.0679C14.2596 15.2548 13.2186 15.3698 12.7178 15.2519C12.2199 15.1369 12.082 15.1369 11.8344 14.0501C11.5756 12.9088 11.7332 12.2015 12.1102 11.5719C12.4843 10.9451 13.1708 10.3644 14.1189 9.90438C16.0179 8.98438 18.8622 8.60775 21.0763 8.625Z" fill="black"/>
</svg>
