<svg width="74" height="70" viewBox="0 0 74 70" fill="none" xmlns="http://www.w3.org/2000/svg">
  <path d="M44.9922 9.7832L45.5303 10.3018L46.2676 10.1846L57.5 8.40137L59.166 18.9814L59.2891 19.7656L60.0088 20.1045L70.1035 24.8594L64.916 34.2764L64.5176 35L64.916 35.7236L70.1035 45.1396L60.0088 49.8955L59.2891 50.2344L59.166 51.0186L57.5 61.5977L46.2676 59.8154L45.5303 59.6982L44.9922 60.2168L37 67.916L29.0078 60.2168L28.4697 59.6982L27.7324 59.8154L16.499 61.5977L14.834 51.0186L14.7109 50.2344L13.9912 49.8955L3.89551 45.1396L9.08398 35.7236L9.48242 35L9.08398 34.2764L3.89551 24.8594L13.9912 20.1045L14.7109 19.7656L14.834 18.9814L16.499 8.40137L27.7324 10.1846L28.4697 10.3018L29.0078 9.7832L37 2.08301L44.9922 9.7832Z" fill="#E7E4D8" stroke="#D0C3A5" stroke-width="3"/>
  <path d="M54.3333 25.25L30.5 51.375L19.6666 39.5" stroke="#9F9FED" stroke-width="6" stroke-linecap="round" stroke-linejoin="round"/>
</svg>
