<svg width="30" height="36" viewBox="0 0 30 36" fill="none" xmlns="http://www.w3.org/2000/svg">
  <path d="M11.6759 0C8.93532 0 6.67482 2.03337 6.67482 4.50526V15.0055H5.04112C2.29718 15.0055 0.0633477 17.0449 0.0400092 19.4987L0 22.6795C0 29.972 6.73816 36 15.0033 36C23.2685 36 30.0067 29.981 30 22.7485L29.9867 14.9695H16.677V4.50526C16.677 2.03337 14.4165 0 11.6759 0ZM11.6759 3.0035C12.6295 3.0035 13.343 3.64625 13.343 4.50526V16.4952H13.3496V17.985H26.6593L26.6659 22.7606C26.6726 28.305 21.4714 33.0085 15.0033 33.0085C8.53523 33.0085 3.33407 28.317 3.33407 22.6915L3.37408 19.5288C3.36775 19.3292 3.40638 19.1305 3.48766 18.9447C3.56893 18.7589 3.69116 18.5899 3.84697 18.4479C4.00277 18.3058 4.18891 18.1937 4.39416 18.1183C4.5994 18.0429 4.81949 18.0057 5.04112 18.009H6.67482V24.01H10.0089V4.50526C10.0089 3.64625 10.7224 3.0035 11.6759 3.0035Z" fill="black"/>
</svg>
